<?xml version="1.0" encoding="UTF-8"?>
<svg version="1.1" xmlns="http://www.w3.org/2000/svg" width="500" height="500" viewBox="85 95 329 265">

<path d="M0 0 C3.52094427 1.50709577 6.30590259 3.83431646 9.20703125 6.30078125 C11.00656984 7.95144941 11.00656984 7.95144941 13.08984375 8.89453125 C13.08984375 9.55453125 13.08984375 10.21453125 13.08984375 10.89453125 C13.92708984 11.08595703 13.92708984 11.08595703 14.78125 11.28125 C20.82618626 12.88709601 27.93886738 15.07404257 32.08984375 19.89453125 C32.76556682 22.60291719 32.91125035 25.08168519 33.08984375 27.89453125 C33.41984375 28.88453125 33.74984375 29.87453125 34.08984375 30.89453125 C34.74984375 30.89453125 35.40984375 30.89453125 36.08984375 30.89453125 C37.51484434 34.88453291 38.49060151 38.69983554 39.08984375 42.89453125 C39.74984375 42.89453125 40.40984375 42.89453125 41.08984375 42.89453125 C43.38636556 45.90871613 44.9718988 48.53375846 46.15234375 52.14453125 C46.8808388 55.19470785 46.8808388 55.19470785 50.08984375 56.89453125 C50.08984375 58.21453125 50.08984375 59.53453125 50.08984375 60.89453125 C50.74984375 60.89453125 51.40984375 60.89453125 52.08984375 60.89453125 C53.06553362 62.30759934 54.03328169 63.72717538 54.94921875 65.1796875 C56.23815275 67.18541428 56.23815275 67.18541428 58.65234375 69.95703125 C60.79409522 72.53811635 62.42519963 74.999498 64.08984375 77.89453125 C65.41861634 79.89756424 66.75260672 81.89713923 68.08984375 83.89453125 C68.74984375 84.90773438 69.40984375 85.9209375 70.08984375 86.96484375 C70.74984375 87.97289062 71.40984375 88.9809375 72.08984375 90.01953125 C72.74984375 91.03273438 73.40984375 92.0459375 74.08984375 93.08984375 C75.96803674 95.88888378 75.96803674 95.88888378 78.17578125 97.97265625 C80.21936294 100.02457909 81.38645766 101.95703163 82.71484375 104.51953125 C84.05041739 107.08008962 85.03572932 108.84041682 87.08984375 110.89453125 C87.08984375 111.88453125 87.08984375 112.87453125 87.08984375 113.89453125 C88.07984375 113.89453125 89.06984375 113.89453125 90.08984375 113.89453125 C90.08984375 114.55453125 90.08984375 115.21453125 90.08984375 115.89453125 C94.02265616 114.32140629 95.78041416 113.42056155 97.96484375 109.70703125 C98.33609375 108.77890625 98.70734375 107.85078125 99.08984375 106.89453125 C99.74984375 106.89453125 100.40984375 106.89453125 101.08984375 106.89453125 C101.41984375 105.24453125 101.74984375 103.59453125 102.08984375 101.89453125 C103.07984375 101.89453125 104.06984375 101.89453125 105.08984375 101.89453125 C105.35796875 101.00765625 105.62609375 100.12078125 105.90234375 99.20703125 C107.56722365 94.56289258 108.94548852 91.65743473 113.08984375 88.89453125 C114.14032019 86.58348307 115.13991813 84.24869474 116.08984375 81.89453125 C117.07984375 80.40953125 117.07984375 80.40953125 118.08984375 78.89453125 C122.23438904 78.26893951 124.30220745 78.34849709 127.77987671 80.75941467 C131.11829846 85.29036303 130.79186523 89.06014122 130.73681641 94.55639648 C130.7499588 96.16700455 130.7499588 96.16700455 130.7633667 97.81015015 C130.78536636 101.35821997 130.7708036 104.90504258 130.75390625 108.453125 C130.75727443 110.92025491 130.76212707 113.38738321 130.7684021 115.85450745 C130.77577447 121.02531735 130.76505633 126.19569538 130.74169922 131.36645508 C130.71322712 137.99231866 130.7296046 144.61716895 130.75956154 151.24299526 C130.77763685 156.33799359 130.77187493 161.43275206 130.75892258 166.52775764 C130.75558849 168.97058291 130.75967569 171.41343 130.77132034 173.85622978 C130.78403026 177.27249617 130.76464638 180.68712682 130.73681641 184.10327148 C130.74693756 185.11177658 130.75705872 186.12028168 130.76748657 187.15934753 C130.69949981 191.6679385 130.56626323 194.92708241 127.73690796 198.56898499 C125.08984375 200.89453125 125.08984375 200.89453125 122.08984375 200.89453125 C122.08984375 202.21453125 122.08984375 203.53453125 122.08984375 204.89453125 C79.84984375 204.89453125 37.60984375 204.89453125 -5.91015625 204.89453125 C-5.91015625 204.23453125 -5.91015625 203.57453125 -5.91015625 202.89453125 C-2.91015625 200.89453125 -2.91015625 200.89453125 0.08984375 200.89453125 C0.08984375 200.23453125 0.08984375 199.57453125 0.08984375 198.89453125 C1.38690982 198.00580079 2.7303674 197.18449724 4.08984375 196.39453125 C10.52052207 192.26269384 15.31862067 186.4755755 18.703125 179.6328125 C21.3729741 176.56969593 21.81301978 176.46181111 25.64453125 176.125 C27.41748743 176.08127238 29.19140426 176.06795633 30.96484375 176.08203125 C32.73311527 176.05757917 34.50135034 176.03030414 36.26953125 176 C37.10194336 175.99403809 37.93435547 175.98807617 38.79199219 175.98193359 C41.30651244 175.94039408 41.30651244 175.94039408 44.59765625 175.2578125 C45.42007813 175.13792969 46.2425 175.01804687 47.08984375 174.89453125 C47.74984375 175.55453125 48.40984375 176.21453125 49.08984375 176.89453125 C51.29235367 177.35459471 51.29235367 177.35459471 53.71484375 177.51953125 C54.53210938 177.59429687 55.349375 177.6690625 56.19140625 177.74609375 C56.81789063 177.79507813 57.444375 177.8440625 58.08984375 177.89453125 C58.08984375 177.23453125 58.08984375 176.57453125 58.08984375 175.89453125 C62.20412946 171.89453125 62.20412946 171.89453125 65.15234375 171.89453125 C67.08984375 172.89453125 67.08984375 172.89453125 68.90234375 174.95703125 C71.04882054 177.21635237 71.04882054 177.21635237 74.58984375 177.39453125 C78.64922328 176.81461989 79.38736671 175.78338602 82.08984375 172.89453125 C84.27734375 172.95703125 84.27734375 172.95703125 86.08984375 173.89453125 C86.41984375 174.88453125 86.74984375 175.87453125 87.08984375 176.89453125 C89.67406834 176.78034458 92.25663888 176.65360763 94.83984375 176.51953125 C95.93425781 176.473125 95.93425781 176.473125 97.05078125 176.42578125 C102.37763835 176.15371038 102.37763835 176.15371038 107.08984375 173.89453125 C107.77354825 172.56985379 108.43948561 171.23589492 109.08984375 169.89453125 C111.69304033 167.54325692 112.51114301 166.89453125 116.08984375 166.89453125 C116.35796875 166.29640625 116.62609375 165.69828125 116.90234375 165.08203125 C118.08984375 162.89453125 118.08984375 162.89453125 119.71484375 161.45703125 C121.30684605 159.94077701 121.30684605 159.94077701 121.3984375 157.53515625 C121.00525271 154.17068892 120.01501543 153.32424007 117.52734375 151.08203125 C113.95721311 147.74018605 110.7150541 144.27093961 107.53515625 140.55859375 C106.43581577 139.29286661 105.27530035 138.07998785 104.08984375 136.89453125 C101.50999911 136.73994338 99.03975094 136.70852036 96.46240234 136.76611328 C94.83035374 136.78524815 93.19830413 136.80429722 91.56625366 136.82327271 C90.69854717 136.83692997 89.83084068 136.85058723 88.93684006 136.86465836 C84.34351303 136.9288042 79.74995197 136.93371063 75.15625 136.94921875 C69.30923528 136.97277269 63.46387325 137.0135775 57.61767578 137.1171875 C52.89435323 137.19935323 48.17388166 137.22264908 43.44990921 137.20736313 C41.65328821 137.2123195 39.85658875 137.2387208 38.06061935 137.28735733 C24.03470897 137.65174459 24.03470897 137.65174459 19.22930908 133.30999756 C16.55000818 129.39490409 14.69819745 125.51773122 13.03768921 121.08718872 C12.26339266 118.72164096 12.26339266 118.72164096 9.96484375 117.58203125 C9.34609375 117.35515625 8.72734375 117.12828125 8.08984375 116.89453125 C8.08984375 116.23453125 8.08984375 115.57453125 8.08984375 114.89453125 C4.86468612 113.15790791 1.57655209 112.00393845 -1.91015625 110.89453125 C-1.91015625 110.23453125 -1.91015625 109.57453125 -1.91015625 108.89453125 C-2.90015625 108.89453125 -3.89015625 108.89453125 -4.91015625 108.89453125 C-4.91015625 108.23453125 -4.91015625 107.57453125 -4.91015625 106.89453125 C-12.44269654 104.15533017 -19.35605113 103.31751535 -27.34765625 103.33203125 C-29.00535034 103.32913086 -29.00535034 103.32913086 -30.6965332 103.32617188 C-37.9391651 103.46798414 -42.94699293 104.09331179 -48.796875 108.58203125 C-51.59125795 110.3175445 -53.68538289 110.11597491 -56.91015625 109.89453125 C-56.91015625 110.55453125 -56.91015625 111.21453125 -56.91015625 111.89453125 C-57.57015625 111.89453125 -58.23015625 111.89453125 -58.91015625 111.89453125 C-59.00296875 112.76078125 -59.00296875 112.76078125 -59.09765625 113.64453125 C-60.22499959 116.7664051 -62.32657305 117.89225427 -64.91015625 119.89453125 C-65.40515625 121.37953125 -65.40515625 121.37953125 -65.91015625 122.89453125 C-67.56015625 123.22453125 -69.21015625 123.55453125 -70.91015625 123.89453125 C-71.65004838 126.80077422 -72.32666531 129.716039 -72.97265625 132.64453125 C-73.14925781 133.44375 -73.32585937 134.24296875 -73.5078125 135.06640625 C-73.64058594 135.6696875 -73.77335937 136.27296875 -73.91015625 136.89453125 C-74.57015625 136.89453125 -75.23015625 136.89453125 -75.91015625 136.89453125 C-76.54455077 145.31158713 -77.01307029 153.7012542 -77.03515625 162.14453125 C-77.03966797 162.85859131 -77.04417969 163.57265137 -77.04882812 164.30834961 C-77.03923977 167.64549624 -76.94609091 170.70451023 -75.91015625 173.89453125 C-75.25015625 173.89453125 -74.59015625 173.89453125 -73.91015625 173.89453125 C-73.66265625 174.80203125 -73.41515625 175.70953125 -73.16015625 176.64453125 C-71.84232575 180.07089055 -70.49581766 181.38967176 -67.91015625 183.89453125 C-67.50796875 185.03921875 -67.50796875 185.03921875 -67.09765625 186.20703125 C-64.16397372 192.84641803 -58.190688 196.64244069 -51.92578125 199.8515625 C-49.91015625 200.89453125 -49.91015625 200.89453125 -46.91015625 202.89453125 C-46.91015625 203.55453125 -46.91015625 204.21453125 -46.91015625 204.89453125 C-56.15958653 204.96421484 -65.40892565 205.01743538 -74.65856171 205.04996777 C-78.9541098 205.06558613 -83.24947755 205.08675391 -87.54492188 205.12084961 C-91.69464375 205.15358038 -95.84419276 205.17141304 -99.99403381 205.17916298 C-101.57278665 205.18468197 -103.15153063 205.19545902 -104.73020935 205.21172142 C-120.2845688 205.36549687 -120.2845688 205.36549687 -126.91015625 201.89453125 C-130.41015123 198.39453627 -131.76114362 195.57099556 -132.03320408 190.68442917 C-132.03228229 189.87693851 -132.03136049 189.06944786 -132.03041077 188.23748779 C-132.03178543 187.30643219 -132.0331601 186.37537659 -132.03457642 185.41610718 C-132.03098114 184.40190704 -132.02738586 183.38770691 -132.02368164 182.34277344 C-132.02382767 181.26929657 -132.02397369 180.1958197 -132.02412415 179.08981323 C-132.02342728 175.54032371 -132.01564539 171.99088661 -132.0078125 168.44140625 C-132.00594752 165.98089629 -132.00452399 163.52038595 -132.00352478 161.05987549 C-131.99970592 154.58259049 -131.98988097 148.1053279 -131.9788208 141.62805176 C-131.96859315 135.01896467 -131.96402425 128.40987397 -131.95898438 121.80078125 C-131.94825817 108.83202169 -131.9313814 95.86327766 -131.91015625 82.89453125 C-131.29527344 82.64058594 -130.68039063 82.38664062 -130.046875 82.125 C-129.23863281 81.78082031 -128.43039063 81.43664062 -127.59765625 81.08203125 C-126.79714844 80.74558594 -125.99664062 80.40914063 -125.171875 80.0625 C-122.92731235 78.90339079 -121.62036609 77.71941988 -119.91015625 75.89453125 C-118.57682292 75.22786458 -117.24348958 74.56119792 -115.91015625 73.89453125 C-115.58015625 73.23453125 -115.25015625 72.57453125 -114.91015625 71.89453125 C-113.27049279 70.85084475 -111.59786262 69.85859816 -109.91015625 68.89453125 C-107.98819341 67.71562235 -106.07157527 66.52795964 -104.16015625 65.33203125 C-103.1959375 64.73261719 -102.23171875 64.13320312 -101.23828125 63.515625 C-98.81576858 62.10447574 -98.81576858 62.10447574 -97.91015625 59.89453125 C-93.92565938 57.93987241 -91.38740909 56.89453125 -86.91015625 56.89453125 C-86.91015625 56.23453125 -86.91015625 55.57453125 -86.91015625 54.89453125 C-82.41370697 50.24258516 -77.28344843 46.83566435 -71.28515625 44.45703125 C-67.91467364 43.22520521 -67.91467364 43.22520521 -66.484375 40.9609375 C-64.65970136 38.56577037 -63.01365767 37.63108057 -60.34765625 36.26953125 C-57.76009464 34.93538618 -55.98068663 33.96506163 -53.91015625 31.89453125 C-53.20890625 31.64703125 -52.50765625 31.39953125 -51.78515625 31.14453125 C-46.62619512 28.90150467 -42.41949428 25.13554252 -38.09765625 21.58203125 C-35.91015625 19.89453125 -35.91015625 19.89453125 -32.91015625 18.89453125 C-31.92015625 17.40953125 -31.92015625 17.40953125 -30.91015625 15.89453125 C-28.53515625 14.83203125 -28.53515625 14.83203125 -25.91015625 13.89453125 C-24.56965573 13.24239586 -23.23354257 12.58073156 -21.91015625 11.89453125 C-21.91015625 11.23453125 -21.91015625 10.57453125 -21.91015625 9.89453125 C-20.75515625 9.35828125 -19.60015625 8.82203125 -18.41015625 8.26953125 C-15.18200371 6.69523855 -12.64016512 4.9057888 -9.91015625 2.58203125 C-6.62323597 0.07038846 -4.26178804 -0.90299271 0 0 Z " fill="#11153B" transform="translate(250.91015625,154.10546875)"/>
<path d="M0 0 C6.74171406 0.12257662 10.00884271 2.06326698 15.1171875 6.40625 C16.91672609 8.05691816 16.91672609 8.05691816 19 9 C19 9.66 19 10.32 19 11 C19.55816406 11.12761719 20.11632812 11.25523437 20.69140625 11.38671875 C26.73634251 12.99256476 33.84902363 15.17951132 38 20 C38.67572307 22.70838594 38.8214066 25.18715394 39 28 C39.495 29.485 39.495 29.485 40 31 C40.66 31 41.32 31 42 31 C43.42500059 34.99000166 44.40075776 38.80530429 45 43 C45.66 43 46.32 43 47 43 C49.29652181 46.01418488 50.88205505 48.63922721 52.0625 52.25 C52.79099505 55.3001766 52.79099505 55.3001766 56 57 C56 58.32 56 59.64 56 61 C56.66 61 57.32 61 58 61 C58.97568987 62.41306809 59.94343794 63.83264413 60.859375 65.28515625 C62.148309 67.29088303 62.148309 67.29088303 64.5625 70.0625 C66.70425147 72.6435851 68.33535588 75.10496675 70 78 C71.32877259 80.00303299 72.66276297 82.00260798 74 84 C74.66 85.01320313 75.32 86.02640625 76 87.0703125 C76.66 88.07835937 77.32 89.08640625 78 90.125 C78.66 91.13820313 79.32 92.15140625 80 93.1953125 C81.87819299 95.99435253 81.87819299 95.99435253 84.0859375 98.078125 C86.12951919 100.13004784 87.29661391 102.06250038 88.625 104.625 C89.96057364 107.18555837 90.94588557 108.94588557 93 111 C93 111.99 93 112.98 93 114 C93.99 114 94.98 114 96 114 C96 114.66 96 115.32 96 116 C99.93281241 114.42687504 101.69057041 113.5260303 103.875 109.8125 C104.24625 108.884375 104.6175 107.95625 105 107 C105.66 107 106.32 107 107 107 C107.33 105.35 107.66 103.7 108 102 C108.99 102 109.98 102 111 102 C111.268125 101.113125 111.53625 100.22625 111.8125 99.3125 C113.4773799 94.66836133 114.85564477 91.76290348 119 89 C120.05047644 86.68895182 121.05007438 84.35416349 122 82 C122.99 80.515 122.99 80.515 124 79 C128.14454529 78.37440826 130.2123637 78.45396584 133.69003296 80.86488342 C137.02845471 85.39583178 136.70202148 89.16560997 136.64697266 94.66186523 C136.65573425 95.73560394 136.66449585 96.80934265 136.67352295 97.9156189 C136.69552261 101.46368872 136.68095985 105.01051133 136.6640625 108.55859375 C136.66743068 111.02572366 136.67228332 113.49285196 136.67855835 115.9599762 C136.68593072 121.1307861 136.67521258 126.30116413 136.65185547 131.47192383 C136.62338337 138.09778741 136.63976085 144.7226377 136.66971779 151.34846401 C136.6877931 156.44346234 136.68203118 161.53822081 136.66907883 166.63322639 C136.66574474 169.07605166 136.66983194 171.51889875 136.68147659 173.96169853 C136.69418651 177.37796492 136.67480263 180.79259557 136.64697266 184.20874023 C136.65709381 185.21724533 136.66721497 186.22575043 136.67764282 187.26481628 C136.60965606 191.77340725 136.47641948 195.03255116 133.64706421 198.67445374 C131 201 131 201 128 201 C128 202.32 128 203.64 128 205 C85.76 205 43.52 205 0 205 C0 204.34 0 203.68 0 203 C3 201 3 201 6 201 C6 200.34 6 199.68 6 199 C7.29706607 198.11126954 8.64052365 197.28996599 10 196.5 C16.43067832 192.36816259 21.22877692 186.58104425 24.61328125 179.73828125 C27.28313035 176.67516468 27.72317603 176.56727986 31.5546875 176.23046875 C33.32764368 176.18674113 35.10156051 176.17342508 36.875 176.1875 C38.64327152 176.16304792 40.41150659 176.13577289 42.1796875 176.10546875 C43.01209961 176.09950684 43.84451172 176.09354492 44.70214844 176.08740234 C47.21666869 176.04586283 47.21666869 176.04586283 50.5078125 175.36328125 C51.33023438 175.24339844 52.15265625 175.12351562 53 175 C53.99 175.99 53.99 175.99 55 177 C57.20250992 177.46006346 57.20250992 177.46006346 59.625 177.625 C60.44226563 177.69976562 61.25953125 177.77453125 62.1015625 177.8515625 C63.04128906 177.92503906 63.04128906 177.92503906 64 178 C64 177.34 64 176.68 64 176 C68.11428571 172 68.11428571 172 71.0625 172 C73 173 73 173 74.8125 175.0625 C76.95897679 177.32182112 76.95897679 177.32182112 80.5 177.5 C84.55937953 176.92008864 85.29752296 175.88885477 88 173 C90.1875 173.0625 90.1875 173.0625 92 174 C92.33 174.99 92.66 175.98 93 177 C95.58422459 176.88581333 98.16679513 176.75907638 100.75 176.625 C101.84441406 176.57859375 101.84441406 176.57859375 102.9609375 176.53125 C108.2877946 176.25917913 108.2877946 176.25917913 113 174 C113.6837045 172.67532254 114.34964186 171.34136367 115 170 C117.60319658 167.64872567 118.42129926 167 122 167 C122.268125 166.401875 122.53625 165.80375 122.8125 165.1875 C124 163 124 163 125.625 161.5625 C127.2170023 160.04624576 127.2170023 160.04624576 127.30859375 157.640625 C126.91540896 154.27615767 125.92517168 153.42970882 123.4375 151.1875 C119.86736936 147.8456548 116.62521035 144.37640836 113.4453125 140.6640625 C112.34597202 139.39833536 111.1854566 138.1854566 110 137 C107.42015536 136.84541213 104.94990719 136.81398911 102.37255859 136.87158203 C100.74050999 136.8907169 99.10846038 136.90976597 97.47640991 136.92874146 C96.60870342 136.94239872 95.74099693 136.95605598 94.84699631 136.97012711 C90.25366928 137.03427295 85.66010822 137.03917938 81.06640625 137.0546875 C75.21939153 137.07824144 69.3740295 137.11904625 63.52783203 137.22265625 C58.80450948 137.30482198 54.08403791 137.32811783 49.36006546 137.31283188 C47.56344446 137.31778825 45.766745 137.34418955 43.9707756 137.39282608 C29.94486522 137.75721334 29.94486522 137.75721334 25.13946533 133.41546631 C22.46016443 129.50037284 20.6083537 125.62319997 18.94784546 121.19265747 C18.17354891 118.82710971 18.17354891 118.82710971 15.875 117.6875 C15.25625 117.460625 14.6375 117.23375 14 117 C14 116.34 14 115.68 14 115 C10.77484237 113.26337666 7.48670834 112.1094072 4 111 C4 110.34 4 109.68 4 109 C3.01 109 2.02 109 1 109 C1 108.34 1 107.68 1 107 C1.66 107 2.32 107 3 107 C3 72.02 3 37.04 3 1 C2.01 0.67 1.02 0.34 0 0 Z " fill="#2DAFA1" transform="translate(245,154)"/>
<path d="M0 0 C0.9283667 -0.00515625 1.8567334 -0.0103125 2.81323242 -0.015625 C9.54919963 0.05363309 9.54919963 0.05363309 12.9375 2.3125 C14.9271995 2.70263716 16.92769869 3.04452649 18.9375 3.3125 C18.9375 3.9725 18.9375 4.6325 18.9375 5.3125 C19.80375 5.56 20.67 5.8075 21.5625 6.0625 C25.14810064 7.39050024 27.90077987 8.99880848 30.9375 11.3125 C30.9375 11.9725 30.9375 12.6325 30.9375 13.3125 C31.88625 13.621875 32.835 13.93125 33.8125 14.25 C36.9375 15.3125 36.9375 15.3125 38.9375 16.3125 C38.9375 16.9725 38.9375 17.6325 38.9375 18.3125 C39.5975 18.3125 40.2575 18.3125 40.9375 18.3125 C41.185 18.9725 41.4325 19.6325 41.6875 20.3125 C43.25634976 24.07773943 45.08731803 27.67917164 46.9375 31.3125 C48.29069621 33.96986357 49.62313237 36.63574468 50.9375 39.3125 C51.34613281 40.11429688 51.75476563 40.91609375 52.17578125 41.7421875 C53.32830316 45.63121015 53.19068183 49.40479413 53.125 53.4375 C53.1142041 54.28699219 53.1034082 55.13648438 53.09228516 56.01171875 C53.06500998 57.69315345 53.03134806 59.37449894 52.99072266 61.05566406 C52.94701218 62.90914849 52.928926 64.76322012 52.91796875 66.6171875 C52.62959691 73.98669005 49.72254287 79.10063544 45.9375 85.3125 C45.421875 86.364375 44.90625 87.41625 44.375 88.5 C43.1467799 90.90303933 41.82623835 93.10533072 40.375 95.375 C38.98885731 97.54443634 37.90694717 99.39397422 37 101.8125 C35.61131988 105.07998263 33.55893572 107.59212411 31.390625 110.38671875 C29.81510682 112.40407853 29.81510682 112.40407853 28.25 115.125 C26.9375 117.3125 26.9375 117.3125 25.5390625 118.5859375 C23.42065857 120.86968027 22.33287384 123.31429786 21 126.125 C18.89510104 130.43403633 16.88536962 134.52238192 13.9375 138.3125 C13.2775 138.3125 12.6175 138.3125 11.9375 138.3125 C11.9375 138.9725 11.9375 139.6325 11.9375 140.3125 C11.2775 140.3125 10.6175 140.3125 9.9375 140.3125 C9.793125 140.910625 9.64875 141.50875 9.5 142.125 C9.0502561 143.87400404 8.50857659 145.59927023 7.9375 147.3125 C7.2775 147.3125 6.6175 147.3125 5.9375 147.3125 C5.2775 149.6225 4.6175 151.9325 3.9375 154.3125 C3.2775 154.3125 2.6175 154.3125 1.9375 154.3125 C1.6075 155.6325 1.2775 156.9525 0.9375 158.3125 C-0.7125 158.6425 -2.3625 158.9725 -4.0625 159.3125 C-7.0625 154.6875 -7.0625 154.6875 -7.0625 151.3125 C-7.7225 151.3125 -8.3825 151.3125 -9.0625 151.3125 C-9.0625 150.6525 -9.0625 149.9925 -9.0625 149.3125 C-9.7225 149.3125 -10.3825 149.3125 -11.0625 149.3125 C-14.28600218 145.67306206 -16.98505557 141.77523012 -18.9375 137.3125 C-20.03733564 135.125532 -20.03733564 135.125532 -22.3125 133.1875 C-25.40491059 129.95452529 -27.37072332 126.6060265 -29.53515625 122.71484375 C-30.97395521 120.24855295 -30.97395521 120.24855295 -33.07421875 118.3515625 C-35.38368287 115.98311404 -36.45097837 113.75736101 -37.8125 110.75 C-40.44800774 105.23694809 -43.67649463 100.64512279 -47.37109375 95.80078125 C-49.50364033 92.6635245 -50.19028197 89.95995722 -51.0625 86.3125 C-52.0525 85.9825 -53.0425 85.6525 -54.0625 85.3125 C-55.16015625 83.01953125 -55.16015625 83.01953125 -56.125 80.125 C-56.44597656 79.18269531 -56.76695312 78.24039063 -57.09765625 77.26953125 C-57.41605469 76.29371094 -57.73445313 75.31789063 -58.0625 74.3125 C-58.42730469 73.40371094 -58.79210937 72.49492187 -59.16796875 71.55859375 C-60.37380641 67.18282479 -60.36261062 63.0800357 -60.3125 58.5625 C-60.30355713 57.66724609 -60.29461426 56.77199219 -60.28540039 55.84960938 C-60.09561319 45.0641898 -58.48318604 38.21453746 -52.62109375 28.9765625 C-51.24723533 26.62826314 -50.68351309 24.90301173 -50.0625 22.3125 C-49.4025 21.9825 -48.7425 21.6525 -48.0625 21.3125 C-47.7325 20.3225 -47.4025 19.3325 -47.0625 18.3125 C-45.43082337 17.25637068 -43.75660179 16.26528376 -42.0625 15.3125 C-39.24319777 13.29299982 -36.46485142 11.22382138 -33.68359375 9.15234375 C-29.74031412 6.38440828 -27.96782271 5.3125 -23.0625 5.3125 C-23.0625 4.6525 -23.0625 3.9925 -23.0625 3.3125 C-15.33256569 0.62382719 -8.1291545 0.01112535 0 0 Z " fill="#2FB0A1" transform="translate(346.0625,95.6875)"/>
<path d="M0 0 C0.69480469 0.45117188 1.38960937 0.90234375 2.10546875 1.3671875 C2.74871094 1.73585938 3.39195312 2.10453125 4.0546875 2.484375 C6.98499334 4.24665684 7.9968002 5.04118184 9.10546875 8.3671875 C10.09546875 8.6971875 11.08546875 9.0271875 12.10546875 9.3671875 C15.3824342 14.18625434 16.33356906 17.54285348 17.10546875 23.3671875 C18.82101959 23.347202 18.82101959 23.347202 20.57122803 23.32681274 C31.34207216 23.20525745 42.11277741 23.11527545 52.88415146 23.05631447 C58.42208154 23.0249828 63.95945857 22.98247566 69.49707031 22.91455078 C74.83984064 22.84942493 80.18207858 22.81349529 85.52521515 22.79792404 C87.56506993 22.78682559 89.60489511 22.76515274 91.64452362 22.73280716 C94.49901094 22.68933375 97.35129034 22.68324955 100.20605469 22.68603516 C101.05194153 22.6644635 101.89782837 22.64289185 102.76934814 22.6206665 C105.03851561 22.64467374 106.92951727 22.72149124 109.10546875 23.3671875 C113.10546875 27.93264678 113.10546875 27.93264678 113.10546875 31.3671875 C82.08546875 31.6971875 51.06546875 32.0271875 19.10546875 32.3671875 C18.77546875 33.3571875 18.44546875 34.3471875 18.10546875 35.3671875 C49.78546875 35.6971875 81.46546875 36.0271875 114.10546875 36.3671875 C114.43546875 35.0471875 114.76546875 33.7271875 115.10546875 32.3671875 C115.76546875 32.6971875 116.42546875 33.0271875 117.10546875 33.3671875 C117.10546875 34.0271875 117.10546875 34.6871875 117.10546875 35.3671875 C118.42546875 35.3671875 119.74546875 35.3671875 121.10546875 35.3671875 C121.10546875 36.6871875 121.10546875 38.0071875 121.10546875 39.3671875 C120.11546875 39.3671875 119.12546875 39.3671875 118.10546875 39.3671875 C117.77546875 40.6871875 117.44546875 42.0071875 117.10546875 43.3671875 C116.44546875 43.3671875 115.78546875 43.3671875 115.10546875 43.3671875 C115.10546875 44.0271875 115.10546875 44.6871875 115.10546875 45.3671875 C114.50734375 45.6353125 113.90921875 45.9034375 113.29296875 46.1796875 C111.07440997 47.21307738 111.07440997 47.21307738 109.78515625 48.92578125 C107.49095549 50.89452562 106.02253031 50.70495073 103.04296875 50.6171875 C102.16511719 50.60171875 101.28726563 50.58625 100.3828125 50.5703125 C98.10546875 50.3671875 98.10546875 50.3671875 96.10546875 49.3671875 C96.10546875 48.7071875 96.10546875 48.0471875 96.10546875 47.3671875 C95.44546875 47.3671875 94.78546875 47.3671875 94.10546875 47.3671875 C93.85796875 46.7278125 93.61046875 46.0884375 93.35546875 45.4296875 C92.28984442 43.17977209 92.28984442 43.17977209 89.98046875 42.6171875 C89.36171875 42.5346875 88.74296875 42.4521875 88.10546875 42.3671875 C86.89918867 44.69932898 85.93999495 46.86360889 85.10546875 49.3671875 C82.63046875 49.8621875 82.63046875 49.8621875 80.10546875 50.3671875 C79.73035156 49.861875 79.35523438 49.3565625 78.96875 48.8359375 C75.89515926 44.71329009 75.89515926 44.71329009 71.35546875 42.7421875 C68.74235519 43.20418848 68.74235519 43.20418848 67.10546875 46.3671875 C66.11546875 46.3671875 65.12546875 46.3671875 64.10546875 46.3671875 C63.77546875 47.3571875 63.44546875 48.3471875 63.10546875 49.3671875 C58.35546875 48.6171875 58.35546875 48.6171875 56.10546875 46.3671875 C53.19008846 45.86676604 53.19008846 45.86676604 50.10546875 46.3671875 C49.52893555 47.02686523 48.95240234 47.68654297 48.35839844 48.36621094 C45.20229985 51.16935182 43.10273752 50.82615912 38.93359375 50.7578125 C37.90996735 50.74932281 37.90996735 50.74932281 36.86566162 50.74066162 C34.69487113 50.71834386 32.52575669 50.66816258 30.35546875 50.6171875 C28.88023225 50.59711626 27.40496976 50.57886657 25.9296875 50.5625 C22.32107374 50.5184963 18.71343494 50.44950333 15.10546875 50.3671875 C14.77546875 53.3371875 14.44546875 56.3071875 14.10546875 59.3671875 C13.44546875 59.3671875 12.78546875 59.3671875 12.10546875 59.3671875 C11.77546875 60.3571875 11.44546875 61.3471875 11.10546875 62.3671875 C10.11546875 62.3671875 9.12546875 62.3671875 8.10546875 62.3671875 C8.0384375 62.98464844 7.97140625 63.60210937 7.90234375 64.23828125 C7.10546875 66.3671875 7.10546875 66.3671875 4.99609375 67.52734375 C3.68898438 67.97400391 3.68898438 67.97400391 2.35546875 68.4296875 C-0.42829349 69.40067044 -2.75487056 70.27476929 -5.22070312 71.90649414 C-8.20347737 73.53596258 -9.94687065 73.75325865 -13.31640625 73.765625 C-14.3425 73.76949219 -15.36859375 73.77335937 -16.42578125 73.77734375 C-17.48796875 73.76574219 -18.55015625 73.75414062 -19.64453125 73.7421875 C-21.21460938 73.75958984 -21.21460938 73.75958984 -22.81640625 73.77734375 C-29.38078068 73.75272735 -34.82730389 72.90386637 -40.89453125 70.3671875 C-40.89453125 69.7071875 -40.89453125 69.0471875 -40.89453125 68.3671875 C-41.55453125 68.3671875 -42.21453125 68.3671875 -42.89453125 68.3671875 C-42.89453125 67.7071875 -42.89453125 67.0471875 -42.89453125 66.3671875 C-43.45140625 66.1609375 -44.00828125 65.9546875 -44.58203125 65.7421875 C-51.58504573 61.57823295 -54.91134027 53.90331322 -56.89453125 46.3671875 C-57.26578125 45.4803125 -57.63703125 44.5934375 -58.01953125 43.6796875 C-60.22772406 35.32010042 -59.54925658 26.21903555 -55.89453125 18.3671875 C-53.82082953 15.10927886 -51.47545927 12.2348853 -48.89453125 9.3671875 C-48.28867188 8.69171875 -47.6828125 8.01625 -47.05859375 7.3203125 C-43.94263858 4.02746904 -41.38993636 1.59320707 -36.89453125 0.3671875 C-36.89453125 -0.2928125 -36.89453125 -0.9528125 -36.89453125 -1.6328125 C-25.55849978 -5.48892156 -10.58766503 -5.95871768 0 0 Z " fill="#14183B" transform="translate(243.89453125,273.6328125)"/>
<path d="M0 0 C3.25 2.25 3.25 2.25 6 5 C9.14411012 7.27446264 11.98001706 8.99158613 15.5625 10.5 C18.9675537 11.98584161 21.34039315 13.41861688 24 16 C25.24463693 19.33621614 24.93753864 22.24963932 24.5625 25.75 C24.46066406 26.73484375 24.35882813 27.7196875 24.25390625 28.734375 C24.17011719 29.48203125 24.08632813 30.2296875 24 31 C23.34 31 22.68 31 22 31 C22 32.98 22 34.96 22 37 C16.84483096 35.76275943 13.38952779 34.09262185 9 31 C8.01 30.67 7.02 30.34 6 30 C6 29.01 6 28.02 6 27 C5.1646875 26.8453125 5.1646875 26.8453125 4.3125 26.6875 C2 26 2 26 -0.5 24.375 C-2.81367061 22.7822361 -2.81367061 22.7822361 -4.9375 23.25 C-5.618125 23.4975 -6.29875 23.745 -7 24 C-8.99788438 24.34578768 -10.99759451 24.68143549 -13 25 C-13 25.66 -13 26.32 -13 27 C-14.64453125 28.18359375 -14.64453125 28.18359375 -16.8125 29.4375 C-18.91721734 30.66045962 -20.7248552 31.71731699 -22.42578125 33.46484375 C-24.52052615 35.50760987 -26.80956988 36.72631344 -29.375 38.125 C-30.77878906 38.90230469 -30.77878906 38.90230469 -32.2109375 39.6953125 C-34.85514272 40.93223763 -37.12575929 41.57147684 -40 42 C-40 42.66 -40 43.32 -40 44 C-41.32 44 -42.64 44 -44 44 C-44 44.66 -44 45.32 -44 46 C-44.66 46 -45.32 46 -46 46 C-46.020625 46.5775 -46.04125 47.155 -46.0625 47.75 C-47.36269267 50.8704624 -49.32728274 51.67041173 -52.2109375 53.265625 C-54 54 -54 54 -57 54 C-57.0928125 54.928125 -57.0928125 54.928125 -57.1875 55.875 C-57.455625 56.57625 -57.72375 57.2775 -58 58 C-59.66584917 58.66870677 -61.33269262 59.33493736 -63 60 C-64.90937976 61.28361665 -66.78379983 62.62036791 -68.625 64 C-76.67647059 70 -76.67647059 70 -80 70 C-80.185625 70.598125 -80.37125 71.19625 -80.5625 71.8125 C-82.70517401 75.07309089 -85.39625404 75.73552773 -89 77 C-89.99 77 -90.98 77 -92 77 C-92 77.66 -92 78.32 -92 79 C-95.15090595 81.8808283 -98.0359796 83.51349235 -102 85 C-102.886875 85.53625 -103.77375 86.0725 -104.6875 86.625 C-107 88 -107 88 -109 88 C-109 88.66 -109 89.32 -109 90 C-112.7615584 93.64757179 -116.03533083 94.83184255 -121 96 C-121 96.99 -121 97.98 -121 99 C-123.97 99.495 -123.97 99.495 -127 100 C-127 100.66 -127 101.32 -127 102 C-130.08809695 103.76462683 -131.23312136 104 -135 104 C-135.226875 104.928125 -135.45375 105.85625 -135.6875 106.8125 C-137.27880124 110.67708873 -138.41627611 111.0297058 -142 113 C-143.41925781 113.90298828 -143.41925781 113.90298828 -144.8671875 114.82421875 C-155.29105298 121.28160035 -155.29105298 121.28160035 -161 120 C-163.75329021 118.20437595 -165.52627461 116.94745078 -167 114 C-167.37676353 110.00630655 -167.47332557 107.7538148 -165.3125 104.3125 C-161.80074316 100.80074316 -158.4249312 98.2124656 -154 96 C-153.505 95.01 -153.505 95.01 -153 94 C-147.69230769 91 -147.69230769 91 -144 91 C-143.79375 90.4225 -143.5875 89.845 -143.375 89.25 C-140.79624186 85.03021395 -136.75556006 83.08375158 -132.125 81.75 C-131.09375 81.5025 -130.0625 81.255 -129 81 C-129 80.34 -129 79.68 -129 79 C-126 77 -126 77 -122 77 C-122 65.78 -122 54.56 -122 43 C-119.40446166 41.70223083 -117.49294473 41.87049965 -114.58984375 41.8671875 C-113.51798828 41.86589844 -112.44613281 41.86460937 -111.34179688 41.86328125 C-110.21837891 41.86714844 -109.09496094 41.87101562 -107.9375 41.875 C-106.81021484 41.87113281 -105.68292969 41.86726563 -104.52148438 41.86328125 C-102.91563477 41.86521484 -102.91563477 41.86521484 -101.27734375 41.8671875 C-99.79609009 41.86887939 -99.79609009 41.86887939 -98.28491211 41.87060547 C-96 42 -96 42 -95 43 C-94.92741054 45.18639453 -94.91626217 47.37500389 -94.9375 49.5625 C-94.94652344 50.76003906 -94.95554687 51.95757812 -94.96484375 53.19140625 C-94.97644531 54.11824219 -94.98804688 55.04507813 -95 56 C-94.01 56 -93.02 56 -92 56 C-92 55.34 -92 54.68 -92 54 C-90.02 53.34 -88.04 52.68 -86 52 C-86 51.34 -86 50.68 -86 50 C-85.01 50 -84.02 50 -83 50 C-83 49.34 -83 48.68 -83 48 C-82.33613281 47.68546875 -81.67226562 47.3709375 -80.98828125 47.046875 C-76.19326961 44.72286936 -72.13736714 42.38511857 -68 39 C-67.01 39 -66.02 39 -65 39 C-65 38.01 -65 37.02 -65 36 C-59.25 33 -59.25 33 -57 33 C-57 32.34 -57 31.68 -57 31 C-56.01 31 -55.02 31 -54 31 C-54 30.34 -54 29.68 -54 29 C-52.865625 28.443125 -51.73125 27.88625 -50.5625 27.3125 C-49.03965893 26.54564074 -47.51897965 25.77447975 -46 25 C-44.7625 24.36964844 -44.7625 24.36964844 -43.5 23.7265625 C-42.695625 23.30117187 -41.89125 22.87578125 -41.0625 22.4375 C-39.93521484 21.84775391 -39.93521484 21.84775391 -38.78515625 21.24609375 C-36.68256783 20.0425516 -36.68256783 20.0425516 -36 17 C-33.68895182 15.94952356 -31.35416349 14.94992562 -29 14 C-28.34 13.34 -27.68 12.68 -27 12 C-26.01 12 -25.02 12 -24 12 C-24 11.34 -24 10.68 -24 10 C-23.360625 9.71125 -22.72125 9.4225 -22.0625 9.125 C-19.84793921 8.17176549 -19.84793921 8.17176549 -19 6 C-18.01 5.67 -17.02 5.34 -16 5 C-15.34 4.01 -14.68 3.02 -14 2 C-9.64090719 -0.77822009 -5.00133845 -0.78592461 0 0 Z " fill="#191C40" transform="translate(253,116)"/>
<path d="M0 0 C4.14454529 -0.62559174 6.2123637 -0.54603416 9.69003296 1.86488342 C13.02845471 6.39583178 12.70202148 10.16560997 12.64697266 15.66186523 C12.65573425 16.73560394 12.66449585 17.80934265 12.67352295 18.9156189 C12.69552261 22.46368872 12.68095985 26.01051133 12.6640625 29.55859375 C12.66743068 32.02572366 12.67228332 34.49285196 12.67855835 36.9599762 C12.68593072 42.1307861 12.67521258 47.30116413 12.65185547 52.47192383 C12.62338337 59.09778741 12.63976085 65.7226377 12.66971779 72.34846401 C12.6877931 77.44346234 12.68203118 82.53822081 12.66907883 87.63322639 C12.66574474 90.07605166 12.66983194 92.51889875 12.68147659 94.96169853 C12.69418651 98.37796492 12.67480263 101.79259557 12.64697266 105.20874023 C12.65709381 106.21724533 12.66721497 107.22575043 12.67764282 108.26481628 C12.60965606 112.77340725 12.47641948 116.03255116 9.64706421 119.67445374 C7 122 7 122 4 122 C4 123.32 4 124.64 4 126 C-38.24 126 -80.48 126 -124 126 C-124 125.34 -124 124.68 -124 124 C-121 122 -121 122 -118 122 C-118 121.34 -118 120.68 -118 120 C-116.70293393 119.11126954 -115.35947635 118.28996599 -114 117.5 C-107.56932168 113.36816259 -102.77122308 107.58104425 -99.38671875 100.73828125 C-96.71686965 97.67516468 -96.27682397 97.56727986 -92.4453125 97.23046875 C-90.67235632 97.18674113 -88.89843949 97.17342508 -87.125 97.1875 C-85.35672848 97.16304792 -83.58849341 97.13577289 -81.8203125 97.10546875 C-80.98790039 97.09950684 -80.15548828 97.09354492 -79.29785156 97.08740234 C-76.78333131 97.04586283 -76.78333131 97.04586283 -73.4921875 96.36328125 C-72.66976562 96.24339844 -71.84734375 96.12351562 -71 96 C-70.01 96.99 -70.01 96.99 -69 98 C-66.79749008 98.46006346 -66.79749008 98.46006346 -64.375 98.625 C-63.55773437 98.69976562 -62.74046875 98.77453125 -61.8984375 98.8515625 C-60.95871094 98.92503906 -60.95871094 98.92503906 -60 99 C-60 98.34 -60 97.68 -60 97 C-55.88571429 93 -55.88571429 93 -52.9375 93 C-51 94 -51 94 -49.1875 96.0625 C-47.04102321 98.32182112 -47.04102321 98.32182112 -43.5 98.5 C-39.44062047 97.92008864 -38.70247704 96.88885477 -36 94 C-33.8125 94.0625 -33.8125 94.0625 -32 95 C-31.67 95.99 -31.34 96.98 -31 98 C-28.41577541 97.88581333 -25.83320487 97.75907638 -23.25 97.625 C-22.52039063 97.5940625 -21.79078125 97.563125 -21.0390625 97.53125 C-15.7122054 97.25917913 -15.7122054 97.25917913 -11 95 C-10.3162955 93.67532254 -9.65035814 92.34136367 -9 91 C-6.39680342 88.64872567 -5.57870074 88 -2 88 C-1.5978125 87.1028125 -1.5978125 87.1028125 -1.1875 86.1875 C0 84 0 84 1.625 82.5625 C3.21247861 81.04743448 3.21247861 81.04743448 3.328125 78.65625 C2.89938281 75.1854799 1.699405 74.24163828 -0.875 71.9375 C-3.6364031 69.43838071 -5.54001884 67.45016599 -7 64 C-5.1875 64.1875 -5.1875 64.1875 -3 65 C-2.566875 65.763125 -2.13375 66.52625 -1.6875 67.3125 C0.6279847 71.00012379 3.14900048 72.03817006 7 74 C7 75.65 7 77.3 7 79 C7.66 79 8.32 79 9 79 C9 55.24 9 31.48 9 7 C6.07735566 5.53867783 4.07536854 4.65900754 1 4 C1 4.99 1 5.98 1 7 C0.01 7 -0.98 7 -2 7 C-2.33 8.98 -2.66 10.96 -3 13 C-3.66 13 -4.32 13 -5 13 C-5 13.66 -5 14.32 -5 15 C-5.66 15 -6.32 15 -7 15 C-7.103125 15.639375 -7.20625 16.27875 -7.3125 16.9375 C-7.539375 17.618125 -7.76625 18.29875 -8 19 C-9.485 19.495 -9.485 19.495 -11 20 C-11.4640625 21.175625 -11.4640625 21.175625 -11.9375 22.375 C-13.14208614 25.35103635 -14.33158609 26.31000453 -17 28 C-16.67 26.35 -16.34 24.7 -16 23 C-15.01 23 -14.02 23 -13 23 C-12.731875 22.113125 -12.46375 21.22625 -12.1875 20.3125 C-10.5226201 15.66836133 -9.14435523 12.76290348 -5 10 C-3.94952356 7.68895182 -2.94992562 5.35416349 -2 3 C-1.34 2.01 -0.68 1.02 0 0 Z " fill="#2FAFA1" transform="translate(369,233)"/>
<path d="M0 0 C1.03125 0.598125 2.0625 1.19625 3.125 1.8125 C8.24065651 5.70484735 10.283273 10.89935642 12 17 C12.67932249 25.09893565 12.80046379 32.69141578 9 40 C8.01 40.495 8.01 40.495 7 41 C6.505 41.845625 6.01 42.69125 5.5 43.5625 C5.005 44.366875 4.51 45.17125 4 46 C3.34 46 2.68 46 2 46 C1.566875 46.928125 1.566875 46.928125 1.125 47.875 C-1.24932455 52.35983525 -4.7843991 53.52829246 -9.359375 55.1796875 C-16.77553942 56.85071167 -24.44434568 56.28186897 -32 56 C-32 55.34 -32 54.68 -32 54 C-32.99 54 -33.98 54 -35 54 C-35 53.34 -35 52.68 -35 52 C-36.65 51.34 -38.3 50.68 -40 50 C-40 49.34 -40 48.68 -40 48 C-40.5775 47.79375 -41.155 47.5875 -41.75 47.375 C-44.84477636 45.48374778 -46.1918763 43.09964063 -48 40 C-48 39.34 -48 38.68 -48 38 C-48.66 38 -49.32 38 -50 38 C-50 37.34 -50 36.68 -50 36 C-50.66 36 -51.32 36 -52 36 C-52.05800828 32.39590081 -52.09359869 28.79192149 -52.125 25.1875 C-52.14175781 24.16333984 -52.15851563 23.13917969 -52.17578125 22.08398438 C-52.18222656 21.10107422 -52.18867188 20.11816406 -52.1953125 19.10546875 C-52.20578613 18.19949951 -52.21625977 17.29353027 -52.22705078 16.36010742 C-52 14 -52 14 -50 11 C-49.34 11 -48.68 11 -48 11 C-47.91878906 10.4328125 -47.83757812 9.865625 -47.75390625 9.28125 C-45.79206612 3.34490474 -39.21055732 -1.66549886 -33.8125 -4.5 C-21.80632462 -9.68930959 -10.29895026 -7.38837736 0 0 Z " fill="#FCFDFD" transform="translate(363,126)"/>
<path d="M0 0 C4.14454529 -0.62559174 6.2123637 -0.54603416 9.69003296 1.86488342 C13.02845471 6.39583178 12.70202148 10.16560997 12.64697266 15.66186523 C12.65573425 16.73560394 12.66449585 17.80934265 12.67352295 18.9156189 C12.69552261 22.46368872 12.68095985 26.01051133 12.6640625 29.55859375 C12.66743068 32.02572366 12.67228332 34.49285196 12.67855835 36.9599762 C12.68593072 42.1307861 12.67521258 47.30116413 12.65185547 52.47192383 C12.62338337 59.09778741 12.63976085 65.7226377 12.66971779 72.34846401 C12.6877931 77.44346234 12.68203118 82.53822081 12.66907883 87.63322639 C12.66574474 90.07605166 12.66983194 92.51889875 12.68147659 94.96169853 C12.69418651 98.37796492 12.67480263 101.79259557 12.64697266 105.20874023 C12.65709381 106.21724533 12.66721497 107.22575043 12.67764282 108.26481628 C12.60965606 112.77340725 12.47641948 116.03255116 9.64706421 119.67445374 C7 122 7 122 4 122 C4 123.32 4 124.64 4 126 C-38.24 126 -80.48 126 -124 126 C-124 125.34 -124 124.68 -124 124 C-121 122 -121 122 -118 122 C-118 121.34 -118 120.68 -118 120 C-115.03 118.35 -112.06 116.7 -109 115 C-109.33 116.65 -109.66 118.3 -110 120 C-112.0625 121.3125 -112.0625 121.3125 -114 122 C-99.46611225 122.04671845 -84.93223615 122.08185513 -70.39828873 122.10362434 C-63.64994039 122.11393741 -56.90163871 122.1279983 -50.15332031 122.15087891 C-43.64351323 122.17294031 -37.13373645 122.18456176 -30.62389374 122.18975449 C-28.13754258 122.19345611 -25.65119415 122.20068425 -23.16486359 122.21146011 C-19.68830074 122.22593141 -16.21193958 122.22797975 -12.73535156 122.22705078 C-11.70244995 122.23424133 -10.66954834 122.24143188 -9.60534668 122.24884033 C-8.65746277 122.246091 -7.70957886 122.24334167 -6.73297119 122.24050903 C-5.91073185 122.24235262 -5.08849251 122.24419621 -4.24133682 122.24609566 C-1.75891441 121.97352914 -0.19662885 121.14374466 2 120 C2.99 120 3.98 120 5 120 C5.33 118.35 5.66 116.7 6 115 C6.99 115.33 7.98 115.66 9 116 C9 80.03 9 44.06 9 7 C6.07735566 5.53867783 4.07536854 4.65900754 1 4 C1 4.99 1 5.98 1 7 C0.01 7 -0.98 7 -2 7 C-2.33 8.98 -2.66 10.96 -3 13 C-3.66 13 -4.32 13 -5 13 C-5 13.66 -5 14.32 -5 15 C-5.66 15 -6.32 15 -7 15 C-7.103125 15.639375 -7.20625 16.27875 -7.3125 16.9375 C-7.539375 17.618125 -7.76625 18.29875 -8 19 C-9.485 19.495 -9.485 19.495 -11 20 C-11.4640625 21.175625 -11.4640625 21.175625 -11.9375 22.375 C-13.14208614 25.35103635 -14.33158609 26.31000453 -17 28 C-16.67 26.35 -16.34 24.7 -16 23 C-15.01 23 -14.02 23 -13 23 C-12.731875 22.113125 -12.46375 21.22625 -12.1875 20.3125 C-10.5226201 15.66836133 -9.14435523 12.76290348 -5 10 C-3.94952356 7.68895182 -2.94992562 5.35416349 -2 3 C-1.34 2.01 -0.68 1.02 0 0 Z " fill="#56B5AA" transform="translate(369,233)"/>
<path d="M0 0 C6.75 -0.125 6.75 -0.125 9 1 C9 1.99 9 2.98 9 4 C9.66 4 10.32 4 11 4 C11 4.66 11 5.32 11 6 C11.556875 6.103125 12.11375 6.20625 12.6875 6.3125 C15.46231275 7.13744433 17.53979132 8.47701367 20 10 C21.0725 10.391875 22.145 10.78375 23.25 11.1875 C26 13 26 13 27.0625 16.8125 C27.28019182 20.88859173 26.28308176 23.57537736 24 27 C20.30525083 29.46316611 17.28931223 29.8001217 13 29 C10.1875 26.875 10.1875 26.875 8.7734375 25.50390625 C5.68785894 22.88728126 2.05691708 21.20272693 -1.51171875 19.33203125 C-4 18 -4 18 -7 16 C-7 15.01 -7 14.02 -7 13 C-6.01 12.34 -5.02 11.68 -4 11 C-2.76609844 8.36367029 -2.76609844 8.36367029 -1.8125 5.375 C-1.46832031 4.37210938 -1.12414062 3.36921875 -0.76953125 2.3359375 C-0.51558594 1.56507813 -0.26164062 0.79421875 0 0 Z " fill="#1D2141" transform="translate(386,207)"/>
<path d="M0 0 C1.32 0.66 2.64 1.32 4 2 C4 2.66 4 3.32 4 4 C5.32 4.33 6.64 4.66 8 5 C8.495 6.98 8.495 6.98 9 9 C8.34 9 7.68 9 7 9 C7 8.34 7 7.68 7 7 C6.34 7 5.68 7 5 7 C4.67 7.99 4.34 8.98 4 10 C-8.22153256 10.02313273 -20.44305994 10.04091986 -32.66460991 10.05181217 C-38.33907721 10.05703895 -44.01352958 10.06413291 -49.68798828 10.07543945 C-55.16037265 10.08627557 -60.63274261 10.09227838 -66.10513687 10.09487724 C-68.19680127 10.09673018 -70.28846484 10.10034829 -72.38012314 10.10573006 C-75.30144731 10.11295007 -78.22271136 10.11399053 -81.14404297 10.11352539 C-82.01582184 10.11712067 -82.88760071 10.12071594 -83.78579712 10.12442017 C-89.77189568 10.11405216 -89.77189568 10.11405216 -92 9 C-91.67 7.68 -91.34 6.36 -91 5 C-59.98 5 -28.96 5 3 5 C2.01 3.35 1.02 1.7 0 0 Z " fill="#CECFD5" transform="translate(354,300)"/>
<path d="M0 0 C3.96 0 7.92 0 12 0 C12 0.66 12 1.32 12 2 C12.66 2 13.32 2 14 2 C14 2.66 14 3.32 14 4 C14.66 4 15.32 4 16 4 C18.33991708 7.65612044 18.37437949 10.73207376 18 15 C16.54704383 18.44121198 15.68439721 19.6657595 12.3125 21.3125 C11.549375 21.539375 10.78625 21.76625 10 22 C10 22.66 10 23.32 10 24 C4.03741576 24.5230337 1.08149829 23.97693033 -3.65234375 20.2890625 C-6.48258713 17.58187318 -6.25663609 14.8182779 -6.375 11.0625 C-6.42398438 10.00160156 -6.47296875 8.94070313 -6.5234375 7.84765625 C-6 5 -6 5 -3.5390625 3.24609375 C-2.70117188 2.83488281 -1.86328125 2.42367188 -1 2 C-0.67 1.34 -0.34 0.68 0 0 Z " fill="#FCFCFD" transform="translate(205,297)"/>
<path d="M0 0 C4.14364385 -0.62545568 6.2134203 -0.54334028 9.69400024 1.86091614 C13.03934871 6.41483222 12.67248947 10.20947353 12.58349609 15.7253418 C12.58583252 16.80550568 12.58816895 17.88566956 12.59057617 18.99856567 C12.59219005 22.56594293 12.55816645 26.13202507 12.5234375 29.69921875 C12.51664894 32.175924 12.51192623 34.65263571 12.50918579 37.12934875 C12.49850816 42.31697348 12.47180544 47.50416734 12.43212891 52.69165039 C12.38118187 59.35348504 12.35610802 66.01498566 12.34119225 72.67698956 C12.32642793 79.01776719 12.30118507 85.35848619 12.2734375 91.69921875 C12.26852673 92.91540075 12.26361595 94.13158276 12.25855637 95.38461876 C12.24233807 98.81075866 12.21893541 102.23676433 12.19287109 105.6628418 C12.18861115 106.685728 12.1843512 107.7086142 12.17996216 108.76249695 C12.17136169 109.69199158 12.16276123 110.62148621 12.15390015 111.57914734 C12.1455417 112.79446908 12.1455417 112.79446908 12.13701439 114.03434277 C12 116 12 116 11 118 C10.34 118 9.68 118 9 118 C9 81.37 9 44.74 9 7 C6.07735566 5.53867783 4.07536854 4.65900754 1 4 C1 4.99 1 5.98 1 7 C0.01 7 -0.98 7 -2 7 C-2.33 8.98 -2.66 10.96 -3 13 C-3.66 13 -4.32 13 -5 13 C-5 13.66 -5 14.32 -5 15 C-5.66 15 -6.32 15 -7 15 C-7.1546875 15.9590625 -7.1546875 15.9590625 -7.3125 16.9375 C-7.539375 17.618125 -7.76625 18.29875 -8 19 C-8.99 19.33 -9.98 19.66 -11 20 C-11.309375 20.78375 -11.61875 21.5675 -11.9375 22.375 C-13.14208614 25.35103635 -14.33158609 26.31000453 -17 28 C-16.67 26.35 -16.34 24.7 -16 23 C-15.01 23 -14.02 23 -13 23 C-12.5978125 21.6696875 -12.5978125 21.6696875 -12.1875 20.3125 C-10.5226201 15.66836133 -9.14435523 12.76290348 -5 10 C-3.94952356 7.68895182 -2.94992562 5.35416349 -2 3 C-1.34 2.01 -0.68 1.02 0 0 Z " fill="#99CEC8" transform="translate(369,233)"/>
<path d="M0 0 C0 34.98 0 69.96 0 106 C-6 105 -6 105 -8.61328125 103.96875 C-13.76972031 102.49378243 -18.84761614 102.53174536 -24.1875 102.5 C-25.86791382 102.48924438 -25.86791382 102.48924438 -27.58227539 102.47827148 C-35.08277498 102.58848425 -40.14492748 103.27030554 -46.27734375 107.78515625 C-46.84582031 108.18605469 -47.41429687 108.58695312 -48 109 C-48.66 108.67 -49.32 108.34 -50 108 C-44.5 103 -44.5 103 -40 103 C-40 102.34 -40 101.68 -40 101 C-35.87406157 100.9501513 -31.74824248 100.91407043 -27.62207031 100.89013672 C-26.22164858 100.88014752 -24.82124732 100.86655146 -23.42089844 100.84912109 C-21.39513052 100.82455757 -19.36964092 100.81344612 -17.34375 100.8046875 C-16.12880859 100.79421387 -14.91386719 100.78374023 -13.66210938 100.77294922 C-10 101 -10 101 -2 103 C-2.33 70 -2.66 37 -3 3 C-3.66 3 -4.32 3 -5 3 C-5 3.66 -5 4.32 -5 5 C-6.98 5.33 -8.96 5.66 -11 6 C-5.15384615 0 -5.15384615 0 0 0 Z " fill="#033147" transform="translate(248,155)"/>
<path d="M0 0 C7.50769231 0.49230769 7.50769231 0.49230769 10 3.0625 C10.33 3.701875 10.66 4.34125 11 5 C9.68 5.33 8.36 5.66 7 6 C7.01160156 6.59167969 7.02320313 7.18335938 7.03515625 7.79296875 C7.04869141 8.97826172 7.04869141 8.97826172 7.0625 10.1875 C7.07410156 10.96480469 7.08570313 11.74210938 7.09765625 12.54296875 C7 15 7 15 6.5 17.17950439 C5.88242301 20.66325076 5.87623239 24.06099643 5.90234375 27.58496094 C5.90380402 28.33201294 5.90526428 29.07906494 5.9067688 29.84875488 C5.91056368 31.46545832 5.91666848 33.08215765 5.92483521 34.69884491 C5.93764849 37.26410249 5.94412773 39.82930805 5.94897461 42.39459229 C5.96231731 48.76829711 5.98646345 55.14195263 6.01037598 61.515625 C6.03018075 66.9006142 6.0457938 72.28558457 6.05593872 77.67060089 C6.06237582 80.18585098 6.07488601 82.70102281 6.08764648 85.21624756 C6.11076832 92.54058206 6.06324634 99.73518101 5 107 C4.34 107 3.68 107 3 107 C3 72.02 3 37.04 3 1 C2.01 0.67 1.02 0.34 0 0 Z " fill="#348D91" transform="translate(245,154)"/>
<path d="M0 0 C0.83861572 0.64743164 1.67723145 1.29486328 2.54125977 1.96191406 C8.54861704 5.3667055 15.63606382 4.60552438 22.33984375 4.609375 C23.83201378 4.62437134 25.32416729 4.64110153 26.81629944 4.65948486 C30.72397665 4.70300825 34.63143001 4.72312378 38.53930664 4.73822021 C42.53480178 4.75784585 46.53005708 4.79980953 50.52539062 4.83984375 C58.3501957 4.91498292 66.17489959 4.96537249 74 5 C73.505 3.02 73.505 3.02 73 1 C76.61941735 2.50239966 79.7321794 3.82145293 83 6 C83 6.66 83 7.32 83 8 C73.75056972 8.06968359 64.5012306 8.12290413 55.25159454 8.15543652 C50.95604645 8.17105488 46.6606787 8.19222266 42.36523438 8.22631836 C38.2155125 8.25904913 34.06596349 8.27688179 29.91612244 8.28463173 C28.3373696 8.29015072 26.75862562 8.30092777 25.1799469 8.31719017 C7.01168571 8.49680751 7.01168571 8.49680751 1.30285645 3.52067566 C0 2 0 2 0 0 Z " fill="#3F4257" transform="translate(121,351)"/>
<path d="M0 0 C3.4375 -0.4375 3.4375 -0.4375 7 0 C9.6942868 2.76288883 10.37417878 4.7332267 10.36076355 8.54315186 C10.36488754 9.448965 10.36901154 10.35477814 10.3732605 11.28804016 C10.36247467 12.27418808 10.35168884 13.260336 10.34057617 14.27636719 C10.34123329 15.84269142 10.34123329 15.84269142 10.34190369 17.44065857 C10.3398133 20.89292076 10.31646983 24.34469762 10.29296875 27.796875 C10.2873737 30.19012181 10.28310317 32.58337206 10.28010559 34.97662354 C10.26864972 41.2764433 10.23917587 47.57605566 10.20599365 53.87579346 C10.17530894 60.30388585 10.16160366 66.73201174 10.14648438 73.16015625 C10.11430712 85.773526 10.06367802 98.38675197 10 111 C9.67 111 9.34 111 9 111 C9 76.68 9 42.36 9 7 C6.07735566 5.53867783 4.07536854 4.65900754 1 4 C1 4.99 1 5.98 1 7 C0.01 7 -0.98 7 -2 7 C-2.33 8.98 -2.66 10.96 -3 13 C-3.66 13 -4.32 13 -5 13 C-5 13.66 -5 14.32 -5 15 C-5.66 15 -6.32 15 -7 15 C-7.1546875 15.9590625 -7.1546875 15.9590625 -7.3125 16.9375 C-7.539375 17.618125 -7.76625 18.29875 -8 19 C-8.99 19.33 -9.98 19.66 -11 20 C-11.309375 20.78375 -11.61875 21.5675 -11.9375 22.375 C-13.14208614 25.35103635 -14.33158609 26.31000453 -17 28 C-16.67 26.35 -16.34 24.7 -16 23 C-15.01 23 -14.02 23 -13 23 C-12.5978125 21.6696875 -12.5978125 21.6696875 -12.1875 20.3125 C-10.5226201 15.66836133 -9.14435523 12.76290348 -5 10 C-3.94952356 7.68895182 -2.94992562 5.35416349 -2 3 C-1.34 2.01 -0.68 1.02 0 0 Z " fill="#53B4A9" transform="translate(369,233)"/>
<path d="M0 0 C0.99 0.495 0.99 0.495 2 1 C2.33 3.31 2.66 5.62 3 8 C33.36 8 63.72 8 95 8 C95 8.99 95 9.98 95 11 C83.03926846 11.06939946 71.07858454 11.12276002 59.11769295 11.15543652 C53.56422966 11.17111672 48.01090374 11.19239788 42.45751953 11.22631836 C37.10183226 11.25882792 31.74627741 11.27683526 26.39049911 11.28463173 C24.34347319 11.29019038 22.29645481 11.30104452 20.24948502 11.31719017 C17.39028298 11.33885281 14.53163368 11.34197163 11.67236328 11.34057617 C10.81928589 11.351362 9.9662085 11.36214783 9.08728027 11.3732605 C6.73318481 11.36076355 6.73318481 11.36076355 3 11 C0.43383368 7.15075052 0.44902324 4.5650696 0 0 Z " fill="#6D717F" transform="translate(258,289)"/>
<path d="M0 0 C0 34.98 0 69.96 0 106 C-1.98 105.67 -3.96 105.34 -6 105 C-4.02 104.505 -4.02 104.505 -2 104 C-1.97674639 92.60309407 -1.95901888 81.20619385 -1.94818783 69.80926895 C-1.94298735 64.51622932 -1.93594164 59.22320602 -1.92456055 53.93017578 C-1.91363035 48.81435741 -1.90770185 43.69855468 -1.90512276 38.58272552 C-1.90328667 36.63888046 -1.89970153 34.69503616 -1.89426994 32.75119781 C-1.86755523 22.78697886 -1.87574736 12.9172611 -3 3 C-3.66 3 -4.32 3 -5 3 C-5 3.66 -5 4.32 -5 5 C-6.98 5.33 -8.96 5.66 -11 6 C-5.15384615 0 -5.15384615 0 0 0 Z " fill="#185361" transform="translate(248,155)"/>
<path d="M0 0 C1.32 0.33 2.64 0.66 4 1 C3.34 1 2.68 1 2 1 C2 1.66 2 2.32 2 3 C0.02 3.66 -1.96 4.32 -4 5 C-4 5.66 -4 6.32 -4 7 C36.59 7 77.18 7 119 7 C119 7.33 119 7.66 119 8 C77.75 8 36.5 8 -6 8 C-6.33 7.01 -6.66 6.02 -7 5 C-2.25 2 -2.25 2 0 2 C0 1.34 0 0.68 0 0 Z " fill="#E0F0EF" transform="translate(249,352)"/>
<path d="M0 0 C0.99 0.495 0.99 0.495 2 1 C1.34 1.99 0.68 2.98 0 4 C-0.99 4 -1.98 4 -3 4 C-3 5.32 -3 6.64 -3 8 C-45.24 8 -87.48 8 -131 8 C-130.67 7.34 -130.34 6.68 -130 6 C-129.36885631 6.00276538 -128.73771261 6.00553076 -128.08744335 6.00837994 C-112.7395851 6.07459529 -97.39177644 6.12425882 -82.04381084 6.15543652 C-74.62168439 6.17091406 -67.1996532 6.19202041 -59.77758789 6.22631836 C-53.30949762 6.2561937 -46.84147632 6.27556855 -40.37331897 6.28226548 C-36.94755536 6.28618095 -33.52198912 6.29540093 -30.09628868 6.31719017 C-26.27468505 6.34130103 -22.45327558 6.34197119 -18.6315918 6.34057617 C-17.49223679 6.351362 -16.35288177 6.36214783 -15.17900085 6.3732605 C-14.13993591 6.36913651 -13.10087097 6.36501251 -12.03031921 6.36076355 C-10.67390084 6.36491162 -10.67390084 6.36491162 -9.29008007 6.36914349 C-6.52108899 5.92280319 -5.82655811 5.04850483 -4 3 C-3.01 2.67 -2.02 2.34 -1 2 C-0.67 1.34 -0.34 0.68 0 0 Z " fill="#9CD0CB" transform="translate(376,351)"/>
<path d="M0 0 C0.99 0 1.98 0 3 0 C3.0825 0.61875 3.165 1.2375 3.25 1.875 C3.79394438 4.17972859 3.79394438 4.17972859 6 5.0625 C6.66 5.371875 7.32 5.68125 8 6 C8.33 6.99 8.66 7.98 9 9 C35.73 9.33 62.46 9.66 90 10 C90.495 10.99 90.495 10.99 91 12 C93.02463255 12.65213292 93.02463255 12.65213292 95 13 C95 14.65 95 16.3 95 18 C94.22470947 17.0200708 93.44941895 16.0401416 92.65063477 15.03051758 C86.95157258 10.19450015 79.30894173 11.30125495 72.2572155 11.45551109 C69.55339788 11.51248675 66.85198141 11.52908374 64.14759827 11.53486633 C56.46505145 11.55887811 48.7839092 11.65850444 41.10229492 11.77661133 C36.3931269 11.84624603 31.68527365 11.87214128 26.97561836 11.87244606 C25.18573038 11.88191378 23.39584505 11.90871818 21.60648918 11.95337486 C7.6076838 12.30204307 7.6076838 12.30204307 3.53884888 9.00674438 C1.52941802 6.09372803 0 3.59548002 0 0 Z " fill="#6CBDB4" transform="translate(267,279)"/>
<path d="M0 0 C1.32 0.66 2.64 1.32 4 2 C4 2.66 4 3.32 4 4 C5.32 4.33 6.64 4.66 8 5 C8.495 6.98 8.495 6.98 9 9 C8.34 9 7.68 9 7 9 C7 8.34 7 7.68 7 7 C6.34 7 5.68 7 5 7 C4.67 7.99 4.34 8.98 4 10 C-27.02 10 -58.04 10 -90 10 C-90 9.67 -90 9.34 -90 9 C-59.31 9 -28.62 9 3 9 C2.01 7.68 1.02 6.36 0 5 C0.99 5 1.98 5 3 5 C2.01 3.35 1.02 1.7 0 0 Z " fill="#696C7D" transform="translate(354,300)"/>
<path d="M0 0 C3.04666025 2.03110684 3.56506373 2.66283709 5.0078125 5.80859375 C5.52794922 6.92911133 5.52794922 6.92911133 6.05859375 8.07226562 C6.41050781 8.85279297 6.76242187 9.63332031 7.125 10.4375 C7.48464844 11.21416016 7.84429687 11.99082031 8.21484375 12.79101562 C12.12523816 21.29282818 12.12523816 21.29282818 12.1328125 26.0625 C12.13514893 26.85414551 12.13748535 27.64579102 12.13989258 28.46142578 C12.11536967 32.64157723 12.0754915 36.82043504 12 41 C11.98324219 42.11632812 11.96648437 43.23265625 11.94921875 44.3828125 C11.62187582 50.9483765 9.64548317 55.55195319 6 61 C5.67 60.34 5.34 59.68 5 59 C5.76056768 57.31352383 6.52305094 55.62784933 7.30078125 53.94921875 C8.36616596 50.97923568 8.12468221 48.11705531 8 45 C8.495 44.505 8.495 44.505 9 44 C10.24489458 31.86700988 10.8924229 19.01887881 3 9 C2.34 8.67 1.68 8.34 1 8 C1.020625 7.236875 1.04125 6.47375 1.0625 5.6875 C1.12942841 2.89814214 1.12942841 2.89814214 0 0 Z " fill="#6FBEB4" transform="translate(387,118)"/>
<path d="M0 0 C3.96 0 7.92 0 12 0 C12 0.66 12 1.32 12 2 C12.66 2 13.32 2 14 2 C14 2.66 14 3.32 14 4 C14.66 4 15.32 4 16 4 C18.33991708 7.65612044 18.37437949 10.73207376 18 15 C16.6875 17.875 16.6875 17.875 15 20 C14.01 20.33 13.02 20.66 12 21 C12 20.34 12 19.68 12 19 C12.66 18.67 13.32 18.34 14 18 C14 13.71 14 9.42 14 5 C13.34 5 12.68 5 12 5 C12 4.34 12 3.68 12 3 C8.04 3 4.08 3 0 3 C0 3.66 0 4.32 0 5 C-0.99 5.33 -1.98 5.66 -3 6 C-3 10.29 -3 14.58 -3 19 C-2.34 19 -1.68 19 -1 19 C-1.33 19.66 -1.66 20.32 -2 21 C-4.69616881 18.77552672 -5.88817707 17.57453849 -6.56640625 14.08984375 C-6.56511719 13.04957031 -6.56382812 12.00929688 -6.5625 10.9375 C-6.58441406 9.89464844 -6.60632813 8.85179687 -6.62890625 7.77734375 C-6 5 -6 5 -3.52734375 3.25390625 C-2.69332031 2.84011719 -1.85929688 2.42632812 -1 2 C-0.67 1.34 -0.34 0.68 0 0 Z " fill="#A5A5AF" transform="translate(205,297)"/>
<path d="M0 0 C0.99 0 1.98 0 3 0 C3 1.65 3 3.3 3 5 C2.34 5 1.68 5 1 5 C0.09710143 16.68931188 -0.11465457 28.27975496 0 40 C-0.66 40 -1.32 40 -2 40 C-4.40594247 34.33501194 -4.33245107 28.98267569 -4.3125 22.9375 C-4.32861328 21.95716797 -4.34472656 20.97683594 -4.36132812 19.96679688 C-4.36489111 14.71851942 -4.22238708 11.34609129 -1 7 C-0.28076792 3.30476048 -0.28076792 3.30476048 0 0 Z " fill="#404259" transform="translate(174,286)"/>
<path d="M0 0 C0.9283667 -0.01353516 1.8567334 -0.02707031 2.81323242 -0.04101562 C4.12964722 -0.03231445 4.12964722 -0.03231445 5.47265625 -0.0234375 C6.260354 -0.02005371 7.04805176 -0.01666992 7.85961914 -0.01318359 C10.41261406 0.46375941 11.30784975 1.40612441 12.9375 3.375 C12.2983667 3.36976318 11.6592334 3.36452637 11.00073242 3.35913086 C8.04216537 3.3380573 5.08361421 3.3252448 2.125 3.3125 C1.12017578 3.30412109 0.11535156 3.29574219 -0.91992188 3.28710938 C-7.69118824 3.26533681 -14.33160926 3.6380169 -21.0625 4.375 C-21.0625 5.035 -21.0625 5.695 -21.0625 6.375 C-22.0525 6.375 -23.0425 6.375 -24.0625 6.375 C-24.0625 7.035 -24.0625 7.695 -24.0625 8.375 C-26.01671035 9.23855778 -27.97601347 10.09059934 -29.9375 10.9375 C-31.02804687 11.41316406 -32.11859375 11.88882813 -33.2421875 12.37890625 C-34.17289062 12.70761719 -35.10359375 13.03632812 -36.0625 13.375 C-36.7225 13.045 -37.3825 12.715 -38.0625 12.375 C-28.83698747 5.67112756 -28.83698747 5.67112756 -23.0625 5.375 C-23.0625 4.715 -23.0625 4.055 -23.0625 3.375 C-15.35339171 0.69357103 -8.10895251 0.04993966 0 0 Z " fill="#71BDB3" transform="translate(346.0625,95.625)"/>
<path d="M0 0 C0.66 0 1.32 0 2 0 C2 0.99 2 1.98 2 3 C2.66 3 3.32 3 4 3 C4 3.99 4 4.98 4 6 C4.66 6 5.32 6 6 6 C6.62867668 7.37332284 7.25273891 8.74875833 7.875 10.125 C8.39707031 11.27355469 8.39707031 11.27355469 8.9296875 12.4453125 C9.45949219 13.70988281 9.45949219 13.70988281 10 15 C10.36738281 15.845625 10.73476563 16.69125 11.11328125 17.5625 C12.42850096 22.66114909 12.32846778 27.63118153 12.3125 32.875 C12.32861328 33.92558594 12.34472656 34.97617188 12.36132812 36.05859375 C12.3653154 42.43025156 11.65153761 47.19320259 9 53 C7.74314665 50.48629329 8.08638401 49.34108457 8.4375 46.5625 C9.72418604 33.16686456 10.62035435 21.1529451 4 9 C3.22675685 7.43869115 2.45564551 5.87632312 1.6875 4.3125 C1.130625 3.219375 0.57375 2.12625 0 1 C0 0.67 0 0.34 0 0 Z " fill="#D5E9E7" transform="translate(389,119)"/>
<path d="M0 0 C0.33 0 0.66 0 1 0 C0.98952637 1.02359619 0.97905273 2.04719238 0.96826172 3.10180664 C0.93187501 6.92419901 0.909032 10.74657626 0.89013672 14.5690918 C0.88012149 16.21885763 0.8665054 17.86860591 0.84912109 19.51831055 C0.82467458 21.89897005 0.81347197 24.27939347 0.8046875 26.66015625 C0.79436493 27.38960953 0.78404236 28.11906281 0.77340698 28.87062073 C0.77263907 32.4300254 1.02601284 35.48184223 2.07470703 38.89624023 C3 42 3 42 2 44 C-0.1484375 39.1171875 -0.1484375 39.1171875 -1 37 C-1.35835938 36.13117188 -1.71671875 35.26234375 -2.0859375 34.3671875 C-3.2885809 29.93693703 -3.29817485 25.81893675 -3.25 21.25 C-3.24540771 20.36272217 -3.24081543 19.47544434 -3.23608398 18.5612793 C-3.02061802 3.02061802 -3.02061802 3.02061802 0 0 Z " fill="#54B2A5" transform="translate(289,133)"/>
<path d="M0 0 C5.5020223 -0.19230369 9.92089182 -0.3336443 15 2 C17.32597511 2.3813074 19.65912158 2.72460254 22 3 C22.33 3.99 22.66 4.98 23 6 C23.66 6 24.32 6 25 6 C25 6.66 25 7.32 25 8 C25.66 8 26.32 8 27 8 C27.33 9.65 27.66 11.3 28 13 C25.27119497 11.79932579 23.0423147 10.29793285 20.6875 8.5 C13.07407755 3.07783569 5.00106195 3.77528555 -4 4 C-3.01 3.67 -2.02 3.34 -1 3 C-0.67 2.01 -0.34 1.02 0 0 Z " fill="#6ABCB1" transform="translate(339,116)"/>
<path d="M0 0 C0 3.36502608 -0.5491851 4.16266225 -2.375 6.875 C-3.83193294 9.10706996 -4.99897006 10.99725349 -5.9375 13.5 C-7.32618012 16.76748263 -9.37856428 19.27962411 -11.546875 22.07421875 C-13.12239318 24.09157853 -13.12239318 24.09157853 -14.6875 26.8125 C-15.94677282 28.91128803 -17.2840089 30.2840089 -19 32 C-20.17574711 34.09989652 -20.17574711 34.09989652 -21 36 C-21.6875 34.375 -21.6875 34.375 -22 32 C-20.5625 28.75 -20.5625 28.75 -19 26 C-18.34 26 -17.68 26 -17 26 C-16.67 24.35 -16.34 22.7 -16 21 C-15.01 20.67 -14.02 20.34 -13 20 C-12.67 19.01 -12.34 18.02 -12 17 C-11.01 16.1028125 -11.01 16.1028125 -10 15.1875 C-7.73877157 13.12329457 -7.73877157 13.12329457 -7.5625 10.0625 C-6.82363687 6.03980071 -5.02015534 4.65184371 -2 2 C-1.34 1.34 -0.68 0.68 0 0 Z " fill="#5CB6AA" transform="translate(389,184)"/>
<path d="M0 0 C5.7305866 5.51017942 10.26581118 11.00145432 13.921875 18.08203125 C14.97169401 20.15163355 14.97169401 20.15163355 17 22 C17 22.99 17 23.98 17 25 C17.99 25 18.98 25 20 25 C20 25.66 20 26.32 20 27 C23.93281241 25.42687504 25.69057041 24.5260303 27.875 20.8125 C28.24625 19.884375 28.6175 18.95625 29 18 C29.66 18.33 30.32 18.66 31 19 C29.07848152 23.13126473 26.95749791 26.53258866 24 30 C22.35 29.67 20.7 29.34 19 29 C19 28.01 19 27.02 19 26 C17.68 26 16.36 26 15 26 C15 24.68 15 23.36 15 22 C14.36707031 21.92136719 13.73414063 21.84273438 13.08203125 21.76171875 C12.39496094 21.51035156 11.70789063 21.25898438 11 21 C10.19921875 19.14453125 10.19921875 19.14453125 9.6875 16.8125 C8.35002586 12.09024495 6.35684989 10.30201665 2.51953125 7.41796875 C1 6 1 6 0.0625 2.625 C0.0315625 1.325625 0.0315625 1.325625 0 0 Z " fill="#78C2B9" transform="translate(321,243)"/>
<path d="M0 0 C3.4375 -0.5 3.4375 -0.5 7 0 C8.9375 2.5 8.9375 2.5 10 5 C9.278125 4.67 8.55625 4.34 7.8125 4 C4.98302573 2.99396471 2.97104534 2.83022598 0 3 C0 3.66 0 4.32 0 5 C-0.66 5 -1.32 5 -2 5 C-2.33 7.64 -2.66 10.28 -3 13 C-3.66 13 -4.32 13 -5 13 C-5 13.66 -5 14.32 -5 15 C-5.66 15 -6.32 15 -7 15 C-7.1546875 15.9590625 -7.1546875 15.9590625 -7.3125 16.9375 C-7.539375 17.618125 -7.76625 18.29875 -8 19 C-8.99 19.33 -9.98 19.66 -11 20 C-11.309375 20.78375 -11.61875 21.5675 -11.9375 22.375 C-13.14208614 25.35103635 -14.33158609 26.31000453 -17 28 C-16.67 26.35 -16.34 24.7 -16 23 C-15.01 23 -14.02 23 -13 23 C-12.5978125 21.6696875 -12.5978125 21.6696875 -12.1875 20.3125 C-10.5226201 15.66836133 -9.14435523 12.76290348 -5 10 C-3.94952356 7.68895182 -2.94992562 5.35416349 -2 3 C-1.34 2.01 -0.68 1.02 0 0 Z " fill="#79C5B8" transform="translate(369,233)"/>
<path d="M0 0 C1.32 0.66 2.64 1.32 4 2 C4 2.66 4 3.32 4 4 C-5.33580534 4.04630809 -14.67157124 4.0818614 -24.00746632 4.10362434 C-28.34233973 4.11406862 -32.67713465 4.12823953 -37.01196289 4.15087891 C-41.19407105 4.17258438 -45.37610364 4.18456378 -49.55826378 4.18975449 C-51.15508909 4.19345438 -52.75191018 4.2006792 -54.34870338 4.21146011 C-56.58257665 4.22594465 -58.81613628 4.22797924 -61.05004883 4.22705078 C-62.32245926 4.231492 -63.59486969 4.23593323 -64.90583801 4.24050903 C-68 4 -68 4 -71 2 C-47.57 2.33 -24.14 2.66 0 3 C0 2.01 0 1.02 0 0 Z " fill="#858794" transform="translate(200,355)"/>
<path d="M0 0 C2.8125 -0.3125 2.8125 -0.3125 6 0 C7.8125 2.4375 7.8125 2.4375 9 5 C10.04703565 6.25676839 10.04703565 6.25676839 12.375 6.25 C15.05177629 6.24302195 15.05177629 6.24302195 16.8125 4.5 C17.204375 4.005 17.59625 3.51 18 3 C18.66 3.33 19.32 3.66 20 4 C17.62054913 7.04569711 16.44141882 7.92776783 12.5625 8.5625 C8.14690736 7.86530116 7.00354695 6.16590084 4 3 C1.88850355 2.92357291 1.88850355 2.92357291 0 4 C-0.7425 4.350625 -1.485 4.70125 -2.25 5.0625 C-2.8275 5.371875 -3.405 5.68125 -4 6 C-4 6.66 -4 7.32 -4 8 C-5.39403756 8.10933628 -6.79063776 8.18619553 -8.1875 8.25 C-8.96480469 8.29640625 -9.74210937 8.3428125 -10.54296875 8.390625 C-13 8 -13 8 -18 4 C-11.07 4.495 -11.07 4.495 -4 5 C-4 4.34 -4 3.68 -4 3 C-3.01 2.67 -2.02 2.34 -1 2 C-0.67 1.34 -0.34 0.68 0 0 Z " fill="#B7DAD7" transform="translate(313,324)"/>
<path d="M0 0 C0.66 0.33 1.32 0.66 2 1 C0.30939829 3.81766951 -0.58276931 4.86700404 -3.76953125 5.8828125 C-7.30672839 7.10607536 -9.61215293 8.71694337 -12.5625 11 C-15.99247639 13.64667682 -18.99092771 15.41293179 -23 17 C-23.5775 17.78375 -24.155 18.5675 -24.75 19.375 C-27.90754312 23.05880031 -31.57892372 24.21324378 -36 26 C-38.00699249 26.98589105 -40.01030767 27.97964496 -42 29 C-41.8125 27.125 -41.8125 27.125 -41 25 C-38.10888212 23.47835901 -36.28176588 23 -33 23 C-33 22.34 -33 21.68 -33 21 C-31.02 20.67 -29.04 20.34 -27 20 C-27 19.01 -27 18.02 -27 17 C-23 15 -19 13 -15 11 C-15 10.34 -15 9.68 -15 9 C-14.05125 8.54625 -13.1025 8.0925 -12.125 7.625 C-8.99686321 6.19761746 -8.99686321 6.19761746 -7 4 C-5.33333333 3.33333333 -3.66666667 2.66666667 -2 2 C-1.34 1.34 -0.68 0.68 0 0 Z " fill="#91929D" transform="translate(159,195)"/>
<path d="M0 0 C0.66 0.33 1.32 0.66 2 1 C0.71937515 2.7074998 -0.61767557 4.37373596 -2 6 C-2.66 6 -3.32 6 -4 6 C-4 6.99 -4 7.98 -4 9 C-6.66673742 9.02727345 -9.33318869 9.04696948 -12 9.0625 C-13.11568359 9.07506836 -13.11568359 9.07506836 -14.25390625 9.08789062 C-26.71585399 9.14207301 -26.71585399 9.14207301 -31 7 C-29.25 4.9375 -29.25 4.9375 -27 3 C-24.8125 3.0625 -24.8125 3.0625 -23 4 C-22.67 4.99 -22.34 5.98 -22 7 C-19.41577541 6.88581333 -16.83320487 6.75907638 -14.25 6.625 C-13.52039063 6.5940625 -12.79078125 6.563125 -12.0390625 6.53125 C-6.71115349 6.25987735 -6.71115349 6.25987735 -2 4 C-0.73195434 1.9664052 -0.73195434 1.9664052 0 0 Z " fill="#6DBFB7" transform="translate(360,324)"/>
<path d="M0 0 C-0.86625 0.37125 -0.86625 0.37125 -1.75 0.75 C-4.11486541 1.88612366 -4.11486541 1.88612366 -5.70605469 4.05371094 C-8.85812792 6.72807533 -10.86307157 6.45994794 -14.953125 6.390625 C-15.61334656 6.38496521 -16.27356812 6.37930542 -16.95379639 6.37347412 C-19.05328263 6.3511623 -21.1510337 6.30098314 -23.25 6.25 C-24.6770586 6.22992794 -26.10414408 6.21167839 -27.53125 6.1953125 C-31.02139293 6.15131693 -34.51052699 6.08232876 -38 6 C-37.67 5.34 -37.34 4.68 -37 4 C-27.76 4 -18.52 4 -9 4 C-9.33 3.01 -9.66 2.02 -10 1 C-6.52674819 -0.1577506 -3.63932552 -0.06866652 0 0 Z " fill="#555D6C" transform="translate(298,318)"/>
<path d="M0 0 C0 3 0 3 -1 6 C-1.66 6 -2.32 6 -3 6 C-3 14.25 -3 22.5 -3 31 C-2.34 31 -1.68 31 -1 31 C-1.495 32.485 -1.495 32.485 -2 34 C-2 33.34 -2 32.68 -2 32 C-2.66 32 -3.32 32 -4 32 C-4 31.34 -4 30.68 -4 30 C-4.66 30 -5.32 30 -6 30 C-6.05800828 26.39590081 -6.09359869 22.79192149 -6.125 19.1875 C-6.14175781 18.16333984 -6.15851563 17.13917969 -6.17578125 16.08398438 C-6.18222656 15.10107422 -6.18867188 14.11816406 -6.1953125 13.10546875 C-6.20578613 12.19949951 -6.21625977 11.29353027 -6.22705078 10.36010742 C-6 8 -6 8 -4 5 C-3.34 5 -2.68 5 -2 5 C-1.855625 4.360625 -1.71125 3.72125 -1.5625 3.0625 C-1 1 -1 1 0 0 Z " fill="#B7DCD8" transform="translate(317,132)"/>
<path d="M0 0 C0.66 0 1.32 0 2 0 C2 0.66 2 1.32 2 2 C4.475 2.99 4.475 2.99 7 4 C7 4.66 7 5.32 7 6 C7.99 6 8.98 6 10 6 C10 6.66 10 7.32 10 8 C12.98042511 7.91207291 15.95821312 7.80507424 18.9375 7.6875 C19.76830078 7.66494141 20.59910156 7.64238281 21.45507812 7.61914062 C27.40730322 7.36437613 32.45578827 6.16991144 38 4 C36.88745117 6.46948242 36.88745117 6.46948242 35 9 C32.1809082 9.56762695 32.1809082 9.56762695 28.80078125 9.48828125 C26.98803711 9.46411133 26.98803711 9.46411133 25.13867188 9.43945312 C23.87603516 9.39755859 22.61339844 9.35566406 21.3125 9.3125 C19.40114258 9.27866211 19.40114258 9.27866211 17.45117188 9.24414062 C14.2996104 9.18512262 11.15038721 9.10282975 8 9 C8 8.34 8 7.68 8 7 C5.03 6.505 5.03 6.505 2 6 C2 5.01 2 4.02 2 3 C1.34 3 0.68 3 0 3 C0 2.01 0 1.02 0 0 Z " fill="#67BBAF" transform="translate(321,174)"/>
<path d="M0 0 C1.8125 0.1875 1.8125 0.1875 4 1 C4.433125 1.763125 4.86625 2.52625 5.3125 3.3125 C7.6279847 7.00012379 10.14900048 8.03817006 14 10 C14.33292585 14.24480464 14.43885872 16.35542625 12 19.9375 C11.01 20.9584375 11.01 20.9584375 10 22 C8.68 21.67 7.36 21.34 6 21 C6.66 20.443125 7.32 19.88625 8 19.3125 C10.18633572 17.19876173 10.18633572 17.19876173 10.3671875 14.609375 C9.88657857 11.19398389 8.66669157 10.21235918 6.125 7.9375 C3.3635969 5.43838071 1.45998116 3.45016599 0 0 Z " fill="#6FBCB5" transform="translate(362,297)"/>
<path d="M0 0 C1.32 0 2.64 0 4 0 C4 0.66 4 1.32 4 2 C3.34 2 2.68 2 2 2 C1.7834375 2.8971875 1.7834375 2.8971875 1.5625 3.8125 C1.1127561 5.56150404 0.57107659 7.28677023 0 9 C-0.66 9 -1.32 9 -2 9 C-2.66 11.31 -3.32 13.62 -4 16 C-4.66 16 -5.32 16 -6 16 C-6.33 17.32 -6.66 18.64 -7 20 C-8.65 20.33 -10.3 20.66 -12 21 C-12.33 20.34 -12.66 19.68 -13 19 C-12.401875 18.938125 -11.80375 18.87625 -11.1875 18.8125 C-7.98676269 17.62365471 -7.43524692 16.06620934 -6 13 C-5.20867631 10.34587087 -4.59685408 7.70879928 -4 5 C-3.34 5 -2.68 5 -2 5 C-1.855625 4.360625 -1.71125 3.72125 -1.5625 3.0625 C-1 1 -1 1 0 0 Z " fill="#83C7BF" transform="translate(354,234)"/>
<path d="M0 0 C1.3921875 -0.01160156 1.3921875 -0.01160156 2.8125 -0.0234375 C7.41801806 -0.01024117 11.20776085 0.03450577 15.375 2.25 C15.375 2.58 15.375 2.91 15.375 3.25 C12.735 3.25 10.095 3.25 7.375 3.25 C7.375 2.59 7.375 1.93 7.375 1.25 C-5.67947462 1.36236264 -5.67947462 1.36236264 -17.1875 6.375 C-17.661875 6.99375 -18.13625 7.6125 -18.625 8.25 C-19.945 7.59 -21.265 6.93 -22.625 6.25 C-20.975 5.59 -19.325 4.93 -17.625 4.25 C-17.625 3.59 -17.625 2.93 -17.625 2.25 C-11.67101594 0.18332785 -6.27296762 -0.05271401 0 0 Z " fill="#686B7C" transform="translate(224.625,269.75)"/>
<path d="M0 0 C4.48519132 1.2516813 7.81123264 2.53790973 11 6 C11.69436525 8.70638422 11.82122557 11.1843028 12 14 C12.33 14.99 12.66 15.98 13 17 C13.66 17 14.32 17 15 17 C16.42500059 20.99000166 17.40075776 24.80530429 18 29 C18.66 29 19.32 29 20 29 C20 29.66 20 30.32 20 31 C19.01 31 18.02 31 17 31 C16.76925781 30.31035156 16.53851563 29.62070313 16.30078125 28.91015625 C14.33965956 23.25933524 12.12466498 18.14765828 9.08203125 13 C8 11 8 11 7.0625 7.6875 C5.61146582 4.01723708 3.32906192 2.95401461 0 1 C0 0.67 0 0.34 0 0 Z " fill="#9AD0C7" transform="translate(272,168)"/>
<path d="M0 0 C4.63744392 3.64370594 6.60469496 8.41162443 8 14 C8.78828287 22.22066421 8.66191637 29.52358741 5 37 C4.05415993 33.95082327 3.99048064 33.03236583 4.9375 29.8125 C7.30227776 21.32712097 5.87962539 15.74073161 2.19140625 7.796875 C1.0724398 5.17005539 0.44614105 2.81017584 0 0 Z " fill="#C3E1DD" transform="translate(367,129)"/>
<path d="M0 0 C1.64696604 0.4752588 3.29254728 0.95531891 4.9375 1.4375 C6.31228516 1.83775391 6.31228516 1.83775391 7.71484375 2.24609375 C10 3 10 3 11 4 C16.66333103 5.07550642 22.18714219 5.11934764 27.9375 5.0625 C28.81212891 5.05798828 29.68675781 5.05347656 30.58789062 5.04882812 C32.72529047 5.03714834 34.86265463 5.01921689 37 5 C33.94782798 8.05217202 30.90559169 7.29370006 26.73242188 7.32226562 C25.10143555 7.31743164 25.10143555 7.31743164 23.4375 7.3125 C22.37724609 7.32861328 21.31699219 7.34472656 20.22460938 7.36132812 C13.59630502 7.36541715 8.12287489 6.57974786 2 4 C2 3.34 2 2.68 2 2 C1.34 2 0.68 2 0 2 C0 1.34 0 0.68 0 0 Z " fill="#323449" transform="translate(201,340)"/>
<path d="M0 0 C4.19918185 -0.07430494 8.39801274 -0.12867413 12.59765625 -0.16479492 C14.02545846 -0.17985681 15.4532146 -0.20031062 16.88085938 -0.22631836 C18.93631373 -0.26281842 20.99115505 -0.27975166 23.046875 -0.29296875 C24.90070801 -0.31653442 24.90070801 -0.31653442 26.79199219 -0.34057617 C30.20161411 0.02140424 31.54581495 0.67709778 34 3 C33.12690186 2.84136475 32.25380371 2.68272949 31.35424805 2.51928711 C20.35506042 0.81645051 5.97824086 -0.66423803 -3.9375 5.0625 C-5.09572266 5.91521484 -5.09572266 5.91521484 -6.27734375 6.78515625 C-6.84582031 7.18605469 -7.41429687 7.58695312 -8 8 C-8.66 7.67 -9.32 7.34 -10 7 C-4.5 2 -4.5 2 0 2 C0 1.34 0 0.68 0 0 Z " fill="#646576" transform="translate(208,256)"/>
<path d="M0 0 C0.33 0 0.66 0 1 0 C1.03738281 0.64066406 1.07476562 1.28132813 1.11328125 1.94140625 C1.54181985 7.57962982 2.563175 11.833931 5 17 C5.309375 18.175625 5.61875 19.35125 5.9375 20.5625 C7.08950423 24.2895725 8.74982823 26.83569596 11 30 C11.69429379 31.3191582 12.37530495 32.64649406 13 34 C12.34 34 11.68 34 11 34 C2.29100174 24.83263341 -0.28556 14.76660596 -0.0703125 2.34375 C-0.03550781 1.18359375 -0.03550781 1.18359375 0 0 Z " fill="#9C9DA7" transform="translate(184,304)"/>
<path d="M0 0 C0.66 0.33 1.32 0.66 2 1 C0.8803014 2.00593243 -0.2459412 3.0045849 -1.375 4 C-2.31472656 4.8353125 -2.31472656 4.8353125 -3.2734375 5.6875 C-5 7 -5 7 -7 7 C-7 7.66 -7 8.32 -7 9 C-7.886875 9.4125 -8.77375 9.825 -9.6875 10.25 C-12.99596847 11.85496864 -12.99596847 11.85496864 -15.5 14.0625 C-18.24613979 16.19075834 -20.67451483 17.07195763 -24 18 C-21.9413783 14.91206745 -21.1446688 14.52161393 -18 13 C-17.67 12.34 -17.34 11.68 -17 11 C-11.69230769 8 -11.69230769 8 -8 8 C-7.79375 7.4225 -7.5875 6.845 -7.375 6.25 C-5.50249112 3.18589456 -3.03041481 1.84460032 0 0 Z " fill="#898A98" transform="translate(117,199)"/>
<path d="M0 0 C-0.33 0.99 -0.66 1.98 -1 3 C-2.64423369 3.70467158 -4.29254257 4.40148766 -5.9609375 5.046875 C-9.0089847 6.47163269 -11.48897735 8.50339735 -14.10546875 10.59765625 C-15.99484428 11.9961837 -17.87123231 13.0134979 -20 14 C-20 14.66 -20 15.32 -20 16 C-21.65 16.33 -23.3 16.66 -25 17 C-25 16.34 -25 15.68 -25 15 C-24.360625 14.71125 -23.72125 14.4225 -23.0625 14.125 C-20.84793921 13.17176549 -20.84793921 13.17176549 -20 11 C-18.66666667 10.33333333 -17.33333333 9.66666667 -16 9 C-15.67 8.34 -15.34 7.68 -15 7 C-14.29875 6.731875 -13.5975 6.46375 -12.875 6.1875 C-9.68932199 4.87167647 -7.34660188 3.13557523 -4.6484375 1.0234375 C-3 0 -3 0 0 0 Z " fill="#A9AAB4" transform="translate(184,195)"/>
<path d="M0 0 C0.66 0.33 1.32 0.66 2 1 C1.85758352 3.35441716 1.71115192 5.70847484 1.5625 8.0625 C1.48128906 9.37347656 1.40007812 10.68445313 1.31640625 12.03515625 C1.02101751 15.73663238 0.56734612 19.33370448 0 23 C-2.31 22.67 -4.62 22.34 -7 22 C-7 21.01 -7 20.02 -7 19 C-4.525 19.99 -4.525 19.99 -2 21 C-2 19.02 -2 17.04 -2 15 C-1.34 15 -0.68 15 0 15 C0 10.05 0 5.1 0 0 Z " fill="#BDC0C4" transform="translate(277,132)"/>
<path d="M0 0 C0.99 0 1.98 0 3 0 C3 1.65 3 3.3 3 5 C2.34 5 1.68 5 1 5 C0.34 13.91 -0.32 22.82 -1 32 C-1.33 32 -1.66 32 -2 32 C-2.28435784 21.14700916 -1.47317858 10.74631163 0 0 Z " fill="#ABACB5" transform="translate(174,286)"/>
<path d="M0 0 C7.50769231 0.49230769 7.50769231 0.49230769 10 3.0625 C10.33 3.701875 10.66 4.34125 11 5 C9.68 5.33 8.36 5.66 7 6 C7 8.97 7 11.94 7 15 C6.01 15.495 6.01 15.495 5 16 C4.93941406 15.41992188 4.87882813 14.83984375 4.81640625 14.2421875 C4.33983439 9.79907137 3.78991334 5.40094577 3 1 C2.01 0.67 1.02 0.34 0 0 Z " fill="#3CA2A0" transform="translate(245,154)"/>
<path d="M0 0 C0.33 0 0.66 0 1 0 C0.3792054 7.13913789 -1.43859245 15.10596136 -7 20 C-6.3899268 15.43138367 -5.18479121 11.47294276 -3.5 7.1875 C-3.0565625 6.04667969 -2.613125 4.90585938 -2.15625 3.73046875 C-1 1 -1 1 0 0 Z " fill="#4CB1A3" transform="translate(395,165)"/>
<path d="M0 0 C0.33 0 0.66 0 1 0 C0.85966889 1.97956441 0.7125877 3.95865141 0.5625 5.9375 C0.48128906 7.03964844 0.40007812 8.14179688 0.31640625 9.27734375 C0 12 0 12 -1 13 C-1.08669432 14.4887186 -1.10703494 15.981445 -1.09765625 17.47265625 C-1.09443359 18.37177734 -1.09121094 19.27089844 -1.08789062 20.19726562 C-1.07951172 21.14279297 -1.07113281 22.08832031 -1.0625 23.0625 C-1.05798828 24.01189453 -1.05347656 24.96128906 -1.04882812 25.93945312 C-1.0370011 28.29303065 -1.02052025 30.64648477 -1 33 C-3.39843528 30.60156472 -3.25596555 30.0516635 -3.265625 26.78125 C-3.26957275 25.9353833 -3.27352051 25.0895166 -3.27758789 24.21801758 C-3.26848389 23.32107178 -3.25937988 22.42412598 -3.25 21.5 C-3.24540771 20.59467529 -3.24081543 19.68935059 -3.23608398 18.7565918 C-3.02233018 3.02233018 -3.02233018 3.02233018 0 0 Z " fill="#A3D1CB" transform="translate(289,133)"/>
<path d="M0 0 C0.99 0 1.98 0 3 0 C5.69963725 7.26330975 6.94550251 14.23951189 6 22 C5.34 22.66 4.68 23.32 4 24 C3.96261719 23.02160156 3.92523438 22.04320312 3.88671875 21.03515625 C3.51143618 13.55158033 2.83002442 7.01353877 0 0 Z " fill="#63B9AD" transform="translate(371,134)"/>
<path d="M0 0 C2.4375 0.8125 2.4375 0.8125 5 2 C5.33 2.99 5.66 3.98 6 5 C8.92914165 6.17082878 8.92914165 6.17082878 12 7 C12.66 7.33 13.32 7.66 14 8 C14 8.66 14 9.32 14 10 C14.66 10 15.32 10 16 10 C15.67 11.32 15.34 12.64 15 14 C14.67 13.01 14.34 12.02 14 11 C13.34 11 12.68 11 12 11 C12 10.34 12 9.68 12 9 C11.29875 8.938125 10.5975 8.87625 9.875 8.8125 C5.89055121 7.68646012 3.99730865 5.86106734 1 3 C0.67 2.01 0.34 1.02 0 0 Z " fill="#75BFB4" transform="translate(371,104)"/>
<path d="M0 0 C2.79224529 1.39612264 3.44282114 3.30488274 5 6 C6.051875 7.546875 6.051875 7.546875 7.125 9.125 C9 12 9 12 10 15 C10.66 15 11.32 15 12 15 C12 15.66 12 16.32 12 17 C12.66 17 13.32 17 14 17 C14.66 18.98 15.32 20.96 16 23 C14.2925002 21.71937515 12.62626404 20.38232443 11 19 C11 18.34 11 17.68 11 17 C10.34 17 9.68 17 9 17 C9 16.01 9 15.02 9 14 C8.34 14 7.68 14 7 14 C3.67391575 9.79975258 1.41836357 5.1576857 0 0 Z " fill="#B7DBD5" transform="translate(325,230)"/>
<path d="M0 0 C2 1 4 2 6 3 C6 4.32 6 5.64 6 7 C6.66 7 7.32 7 8 7 C8 7.99 8 8.98 8 10 C8.99 10.33 9.98 10.66 11 11 C12.1875 14.0625 12.1875 14.0625 13 17 C9.21159738 15.53536918 7.90305798 13.68357247 5.9375 10.1875 C5.45152344 9.33542969 4.96554687 8.48335937 4.46484375 7.60546875 C3.98144531 6.74566406 3.49804688 5.88585937 3 5 C2.00475819 3.33048764 1.00613998 1.66296726 0 0 Z " fill="#6CBDB1" transform="translate(314,214)"/>
<path d="M0 0 C0.33 0.99 0.66 1.98 1 3 C-0.98 3.33 -2.96 3.66 -5 4 C-5 4.66 -5 5.32 -5 6 C-5.66 6 -6.32 6 -7 6 C-7 6.66 -7 7.32 -7 8 C-10 10 -10 10 -13 10 C-13 10.66 -13 11.32 -13 12 C-14.32 11.67 -15.64 11.34 -17 11 C-16.030625 10.566875 -15.06125 10.13375 -14.0625 9.6875 C-10.72268235 8.2985139 -10.72268235 8.2985139 -10 5 C-9.34 5 -8.68 5 -8 5 C-8 4.34 -8 3.68 -8 3 C-6.68 3 -5.36 3 -4 3 C-4 2.34 -4 1.68 -4 1 C-2.68 0.67 -1.36 0.34 0 0 Z " fill="#A4A5AE" transform="translate(217,157)"/>
<path d="M0 0 C0.66 0 1.32 0 2 0 C2 0.99 2 1.98 2 3 C2.66 3 3.32 3 4 3 C4 3.99 4 4.98 4 6 C4.66 6 5.32 6 6 6 C10.59225513 15.22551253 10.59225513 15.22551253 10 21 C8.43881554 18.65822331 7.241907 16.54694178 6.0546875 14.0234375 C5.70019531 13.270625 5.34570312 12.5178125 4.98046875 11.7421875 C4.61566406 10.96101562 4.25085938 10.17984375 3.875 9.375 C3.50246094 8.58609375 3.12992187 7.7971875 2.74609375 6.984375 C0 1.13006525 0 1.13006525 0 0 Z " fill="#CAE3E0" transform="translate(389,119)"/>
<path d="M0 0 C0.86625 0.33 1.7325 0.66 2.625 1 C8.53453691 2.72157997 14.90954927 2.35105815 21 2 C21.33 1.67 21.66 1.34 22 1 C23.66617115 0.95936168 25.33388095 0.957279 27 1 C24.7201003 3.2798997 23.13067963 3.93842768 19.9152832 4.11352539 C19.13499756 4.10828857 18.35471191 4.10305176 17.55078125 4.09765625 C16.70322266 4.09443359 15.85566406 4.09121094 14.98242188 4.08789062 C14.10134766 4.07951172 13.22027344 4.07113281 12.3125 4.0625 C11.41982422 4.05798828 10.52714844 4.05347656 9.60742188 4.04882812 C7.40488013 4.03704983 5.20247401 4.02060164 3 4 C3 3.34 3 2.68 3 2 C2.01 2 1.02 2 0 2 C0 1.34 0 0.68 0 0 Z " fill="#D8EBE9" transform="translate(328,178)"/>
<path d="M0 0 C4.30177212 2.94331777 5.53186749 5.07126944 7 10 C7.556875 10.53625 8.11375 11.0725 8.6875 11.625 C9.120625 12.07875 9.55375 12.5325 10 13 C9.6875 15.1875 9.6875 15.1875 9 17 C5.28930302 13.00386479 3.40208382 10.62917348 3 5 C2.01 4.67 1.02 4.34 0 4 C0 2.68 0 1.36 0 0 Z " fill="#84C9BF" transform="translate(292,177)"/>
<path d="M0 0 C0.66 0.33 1.32 0.66 2 1 C1.34 1.66 0.68 2.32 0 3 C-0.24360073 6.12814514 -0.24360073 6.12814514 -0.125 9.625 C-0.10695312 10.81351562 -0.08890625 12.00203125 -0.0703125 13.2265625 C-0.04710937 14.14179688 -0.02390625 15.05703125 0 16 C0.66 16 1.32 16 2 16 C1.67 16.66 1.34 17.32 1 18 C-1.73640483 15.7566899 -2.89843592 14.60298671 -3.49609375 11.0546875 C-3.47675781 10.00539063 -3.45742187 8.95609375 -3.4375 7.875 C-3.43556641 6.29332031 -3.43556641 6.29332031 -3.43359375 4.6796875 C-3.29050781 3.79539062 -3.14742187 2.91109375 -3 2 C-2.01 1.34 -1.02 0.68 0 0 Z " fill="#91919D" transform="translate(202,300)"/>
<path d="M0 0 C0.66 0.33 1.32 0.66 2 1 C0.6875 2.5 0.6875 2.5 -1 4 C-1.99 4 -2.98 4 -4 4 C-4.3403125 4.8971875 -4.3403125 4.8971875 -4.6875 5.8125 C-6.38921485 8.64869142 -8.08676036 9.44627219 -11 11 C-12.27260451 11.72607104 -13.54339729 12.45532536 -14.8125 13.1875 C-16.3903125 14.0846875 -16.3903125 14.0846875 -18 15 C-18.33 14.34 -18.66 13.68 -19 13 C-18.34 13 -17.68 13 -17 13 C-17 12.34 -17 11.68 -17 11 C-16.29875 10.7525 -15.5975 10.505 -14.875 10.25 C-8.99472897 7.70945343 -8.99472897 7.70945343 -5 3 C-2.5625 1.3125 -2.5625 1.3125 0 0 Z " fill="#AAAAB4" transform="translate(140,222)"/>
<path d="M0 0 C1.32 0.33 2.64 0.66 4 1 C3.34 1 2.68 1 2 1 C2 1.66 2 2.32 2 3 C0.02 3.66 -1.96 4.32 -4 5 C-4 5.66 -4 6.32 -4 7 C0.29 7 4.58 7 9 7 C9 7.33 9 7.66 9 8 C4.05 8 -0.9 8 -6 8 C-6.33 7.01 -6.66 6.02 -7 5 C-2.25 2 -2.25 2 0 2 C0 1.34 0 0.68 0 0 Z " fill="#DAE9E8" transform="translate(249,352)"/>
<path d="M0 0 C2.87103934 0.50243188 3.79784031 1.10822885 5.5 3.4375 C5.5 4.0975 5.5 4.7575 5.5 5.4375 C1.87 5.1075 -1.76 4.7775 -5.5 4.4375 C-2.5 0.4375 -2.5 0.4375 0 0 Z " fill="#1D1C3D" transform="translate(351.5,299.5625)"/>
<path d="M0 0 C0 3.36502608 -0.5491851 4.16266225 -2.375 6.875 C-3.91918916 9.23465984 -5.09133365 11.23340822 -6.125 13.875 C-7 16 -7 16 -10 18 C-9.690625 17.29875 -9.38125 16.5975 -9.0625 15.875 C-7.87866342 13.03655766 -7.87866342 13.03655766 -7.6875 10 C-6.79200703 6.09239433 -4.96841328 4.60641166 -2 2 C-1.34 1.34 -0.68 0.68 0 0 Z " fill="#76BEB4" transform="translate(389,184)"/>
<path d="M0 0 C0.66 0.33 1.32 0.66 2 1 C0.79174805 2.97558594 0.79174805 2.97558594 -1 5 C-3.17651367 5.45410156 -3.17651367 5.45410156 -5.66796875 5.390625 C-6.56064453 5.37773437 -7.45332031 5.36484375 -8.37304688 5.3515625 C-9.30181641 5.31804687 -10.23058594 5.28453125 -11.1875 5.25 C-12.12787109 5.23195312 -13.06824219 5.21390625 -14.03710938 5.1953125 C-16.35909889 5.1481655 -18.6790369 5.08238231 -21 5 C-21 4.67 -21 4.34 -21 4 C-20.07058594 3.96261719 -19.14117187 3.92523438 -18.18359375 3.88671875 C-11.39884458 3.5259031 -6.0737564 3.0368782 0 0 Z " fill="#80C2B9" transform="translate(357,178)"/>
<path d="M0 0 C3.96 0 7.92 0 12 0 C12 0.99 12 1.98 12 3 C8.04 3 4.08 3 0 3 C0 3.66 0 4.32 0 5 C-0.66 4.67 -1.32 4.34 -2 4 C-1.34 2.68 -0.68 1.36 0 0 Z " fill="#B4B6BF" transform="translate(205,297)"/>
<path d="M0 0 C4.72254335 1.49132948 4.72254335 1.49132948 6.125 4.0625 C6.41375 4.701875 6.7025 5.34125 7 6 C7.99 6.33 8.98 6.66 10 7 C11.1875 10.0625 11.1875 10.0625 12 13 C10.8944811 12.06409496 9.79064547 11.12620142 8.6875 10.1875 C8.07261719 9.66542969 7.45773438 9.14335937 6.82421875 8.60546875 C3.77482948 5.921745 1.6760724 3.73893074 0 0 Z " fill="#737381" transform="translate(246,276)"/>
<path d="M0 0 C0 4.62 0 9.24 0 14 C-0.33 14 -0.66 14 -1 14 C-1.33 10.04 -1.66 6.08 -2 2 C-2.66 2 -3.32 2 -4 2 C-4 2.66 -4 3.32 -4 4 C-5.98 4.33 -7.96 4.66 -10 5 C-5.625 0 -5.625 0 0 0 Z " fill="#2A3E54" transform="translate(247,156)"/>
<path d="M0 0 C0.66 0 1.32 0 2 0 C3.09651823 3.41139003 2.94215473 6.20655581 2.5625 9.75 C2.46066406 10.73484375 2.35882813 11.7196875 2.25390625 12.734375 C2.12822266 13.85585937 2.12822266 13.85585937 2 15 C1.34 15 0.68 15 0 15 C0 16.98 0 18.96 0 21 C-0.99 20.67 -1.98 20.34 -3 20 C-2.34 19.67 -1.68 19.34 -1 19 C-1.020625 17.865625 -1.04125 16.73125 -1.0625 15.5625 C-1 12 -1 12 0 11 C0.07226502 9.14712498 0.0838122 7.29166122 0.0625 5.4375 C0.05347656 4.42558594 0.04445313 3.41367188 0.03515625 2.37109375 C0.02355469 1.58863281 0.01195312 0.80617187 0 0 Z " fill="#4E5262" transform="translate(275,132)"/>
<path d="M0 0 C3.4375 0.6875 3.4375 0.6875 5.375 3.1875 C5.725625 4.0125 6.07625 4.8375 6.4375 5.6875 C5.715625 5.3575 4.99375 5.0275 4.25 4.6875 C1.42052573 3.68146471 -0.59145466 3.51772598 -3.5625 3.6875 C-3.5625 4.3475 -3.5625 5.0075 -3.5625 5.6875 C-4.2225 5.6875 -4.8825 5.6875 -5.5625 5.6875 C-5.8925 6.6775 -6.2225 7.6675 -6.5625 8.6875 C-6.8925 8.0275 -7.2225 7.3675 -7.5625 6.6875 C-4.53527529 0.87522857 -4.53527529 0.87522857 0 0 Z " fill="#BEDDDA" transform="translate(372.5625,232.3125)"/>
<path d="M0 0 C0 0.99 0 1.98 0 3 C-2.72155791 5.49476142 -5.49758584 7.75720788 -9 9 C-10.34353414 8.71050922 -11.67965718 8.38155437 -13 8 C-11.58531689 7.03874097 -10.1681636 6.08111675 -8.75 5.125 C-7.96109375 4.59132812 -7.1721875 4.05765625 -6.359375 3.5078125 C-4.28444308 2.18177985 -2.22385028 1.05071825 0 0 Z " fill="#2D2F4D" transform="translate(134,229)"/>
<path d="M0 0 C0.33 0.66 0.66 1.32 1 2 C1.66 2 2.32 2 3 2 C3.2475 2.9075 3.495 3.815 3.75 4.75 C5.03981342 8.10351489 6.31971042 9.67708236 9 12 C8.67 12.99 8.34 13.98 8 15 C0.14806378 5.77448747 0.14806378 5.77448747 0 0 Z " fill="#808291" transform="translate(174,326)"/>
<path d="M0 0 C0.75 1.75 0.75 1.75 1 4 C-0.75 5.9375 -0.75 5.9375 -3 8 C-4.0409066 9.64142963 -5.04504326 11.30712215 -6 13 C-6.99 14.485 -6.99 14.485 -8 16 C-8.66 15.67 -9.32 15.34 -10 15 C-9.23439544 13.7260098 -8.46227374 12.45593488 -7.6875 11.1875 C-7.25824219 10.47980469 -6.82898438 9.77210938 -6.38671875 9.04296875 C-5.07161912 7.1055121 -3.66707275 5.63002669 -2 4 C-0.82425289 1.90010348 -0.82425289 1.90010348 0 0 Z " fill="#C7E3DF" transform="translate(376,207)"/>
<path d="M0 0 C0.33 0 0.66 0 1 0 C1.05418326 2.08304538 1.09287551 4.16649768 1.125 6.25 C1.14820313 7.41015625 1.17140625 8.5703125 1.1953125 9.765625 C1.0103949 12.82786046 0.60823023 14.44202751 -1 17 C-1.66 17 -2.32 17 -3 17 C-3.33 18.32 -3.66 19.64 -4 21 C-5 19 -5 19 -4.0625 15.875 C-3.711875 14.92625 -3.36125 13.9775 -3 13 C-2.34 13 -1.68 13 -1 13 C-0.67 8.71 -0.34 4.42 0 0 Z " fill="#4DB3A5" transform="translate(377,145)"/>
<path d="M0 0 C3.2715151 2.18101007 4.09036238 3.63903779 6 7 C7.32458708 9.00580329 8.6559907 11.00715862 10 13 C9.67 13.66 9.34 14.32 9 15 C7.5 13.6875 7.5 13.6875 6 12 C6 11.01 6 10.02 6 9 C4.68 8.67 3.36 8.34 2 8 C1.34 5.36 0.68 2.72 0 0 Z " fill="#4BB0A3" transform="translate(308,226)"/>
<path d="M0 0 C0.89203125 0.01804687 1.7840625 0.03609375 2.703125 0.0546875 C3.71632812 0.08949219 3.71632812 0.08949219 4.75 0.125 C5.08 0.785 5.41 1.445 5.75 2.125 C5.06292969 2.11339844 4.37585938 2.10179688 3.66796875 2.08984375 C2.76691406 2.08082031 1.86585938 2.07179688 0.9375 2.0625 C0.04417969 2.05089844 -0.84914062 2.03929688 -1.76953125 2.02734375 C-4.38413791 2.01490033 -4.38413791 2.01490033 -7.25 3.125 C-7.25 3.785 -7.25 4.445 -7.25 5.125 C-10.715 6.61 -10.715 6.61 -14.25 8.125 C-14.25 7.465 -14.25 6.805 -14.25 6.125 C-13.26 5.795 -12.27 5.465 -11.25 5.125 C-10.59 4.135 -9.93 3.145 -9.25 2.125 C-6.13537268 0.08017946 -3.67846087 -0.0968016 0 0 Z " fill="#858695" transform="translate(248.25,115.875)"/>
<path d="M0 0 C0.33 0 0.66 0 1 0 C2.44608879 6.98942918 2.44608879 6.98942918 1.17578125 9.8671875 C0.0625 11.5 0.0625 11.5 -2 14 C-3.25127906 10.45332822 -2.72285053 8.27746562 -1.5625 4.75 C-1.27503906 3.85796875 -0.98757812 2.9659375 -0.69140625 2.046875 C-0.46324219 1.37140625 -0.23507813 0.6959375 0 0 Z " fill="#535469" transform="translate(188,292)"/>
<path d="M0 0 C0.33 0.99 0.66 1.98 1 3 C-2.91055355 6.30892993 -6.84482685 8 -12 8 C-10.6875 6.5 -10.6875 6.5 -9 5 C-8.01 5 -7.02 5 -6 5 C-6 4.34 -6 3.68 -6 3 C-4.02 2.01 -2.04 1.02 0 0 Z " fill="#373B53" transform="translate(235,123)"/>
<path d="M0 0 C0.66 0.33 1.32 0.66 2 1 C-1.67832017 5.52615993 -5.41086363 9.39424999 -10 13 C-10 11.68 -10 10.36 -10 9 C-9.34 8.67 -8.68 8.34 -8 8 C-7.67 7.01 -7.34 6.02 -7 5 C-5.36368108 3.95107762 -3.69514137 2.95093297 -2 2 C-1.34 1.34 -0.68 0.68 0 0 Z " fill="#9CCEC8" transform="translate(306,109)"/>
<path d="M0 0 C3.43734063 -0.08703823 6.87439837 -0.14040272 10.3125 -0.1875 C11.28896484 -0.21263672 12.26542969 -0.23777344 13.27148438 -0.26367188 C14.20927734 -0.27333984 15.14707031 -0.28300781 16.11328125 -0.29296875 C16.97735596 -0.3086792 17.84143066 -0.32438965 18.73168945 -0.34057617 C21.45018536 0.06759322 22.30363829 0.89592904 24 3 C23.20335937 2.84660156 22.40671875 2.69320312 21.5859375 2.53515625 C17.26552585 1.89038893 12.98462602 1.64957112 8.625 1.4375 C7.79355469 1.39431641 6.96210938 1.35113281 6.10546875 1.30664062 C4.07046772 1.20138195 2.03525297 1.10026928 0 1 C0 0.67 0 0.34 0 0 Z " fill="#AAD5CE" transform="translate(335,96)"/>
<path d="M0 0 C10.55808656 2.89066059 10.55808656 2.89066059 15 6 C11.57056481 7.18771723 9.62215325 6.80226223 6.25 5.5625 C5.45078125 5.27503906 4.6515625 4.98757813 3.828125 4.69140625 C2.92320312 4.34916016 2.92320312 4.34916016 2 4 C2 3.34 2 2.68 2 2 C1.34 2 0.68 2 0 2 C0 1.34 0 0.68 0 0 Z " fill="#626474" transform="translate(201,340)"/>
<path d="M0 0 C1.875 0.25 1.875 0.25 4 1 C4.66 2.32 5.32 3.64 6 5 C2.7 5 -0.6 5 -4 5 C-2.68 3.35 -1.36 1.7 0 0 Z " fill="#67B3AB" transform="translate(333,327)"/>
<path d="M0 0 C0.99 0 1.98 0 3 0 C1.79157144 4.43090471 0.48331435 6.98112756 -3 10 C-3.36265043 5.76907828 -2.60250805 3.37362154 0 0 Z " fill="#69BEB2" transform="translate(364,220)"/>
<path d="M0 0 C4.84455959 1.49740933 4.84455959 1.49740933 7 3 C7.9375 6.6875 7.9375 6.6875 8 10 C6.62437146 8.71034824 5.29233607 7.37310707 4 6 C4 5.34 4 4.68 4 4 C2.68 3.34 1.36 2.68 0 2 C0 1.34 0 0.68 0 0 Z " fill="#84C4BE" transform="translate(259,269)"/>
<path d="M0 0 C1.98 0.99 1.98 0.99 4 2 C4 2.66 4 3.32 4 4 C5.32 4.33 6.64 4.66 8 5 C8.33 6.32 8.66 7.64 9 9 C8.34 9 7.68 9 7 9 C7 8.34 7 7.68 7 7 C4.69 6.67 2.38 6.34 0 6 C0.99 5.67 1.98 5.34 3 5 C2.01 3.35 1.02 1.7 0 0 Z " fill="#737888" transform="translate(354,300)"/>
<path d="M0 0 C2.31 0 4.62 0 7 0 C3.79663178 2.83374881 1.21912747 3.5205537 -3 4 C-3 4.66 -3 5.32 -3 6 C-3.66 6 -4.32 6 -5 6 C-4.67 4.68 -4.34 3.36 -4 2 C-2.68 2 -1.36 2 0 2 C0 1.34 0 0.68 0 0 Z " fill="#54566B" transform="translate(243,137)"/>
<path d="M0 0 C2.97 0.495 2.97 0.495 6 1 C6 1.66 6 2.32 6 3 C6.66 3 7.32 3 8 3 C8.33 4.65 8.66 6.3 9 8 C6.53199953 6.84826645 4.95216435 5.95216435 3 4 C3 3.01 3 2.02 3 1 C2.01 0.67 1.02 0.34 0 0 Z " fill="#69B7AE" transform="translate(358,121)"/>
<path d="M0 0 C0.33 0.99 0.66 1.98 1 3 C-0.08203125 4.48828125 -0.08203125 4.48828125 -2 6 C-5.13671875 6.29296875 -5.13671875 6.29296875 -8.6875 6.1875 C-10.45673828 6.14689453 -10.45673828 6.14689453 -12.26171875 6.10546875 C-13.61716797 6.05326172 -13.61716797 6.05326172 -15 6 C-14.67 5.34 -14.34 4.68 -14 4 C-10.04 4 -6.08 4 -2 4 C-1.34 2.68 -0.68 1.36 0 0 Z " fill="#D6D7DB" transform="translate(356,319)"/>
<path d="M0 0 C0.33 0.66 0.66 1.32 1 2 C0.14453125 4.05859375 0.14453125 4.05859375 -1.1875 6.4375 C-1.82751953 7.61119141 -1.82751953 7.61119141 -2.48046875 8.80859375 C-4.08188172 11.11808649 -5.6741412 12.45108761 -8 14 C-7.67 12.35 -7.34 10.7 -7 9 C-6.01 9 -5.02 9 -4 9 C-3.71125 8.071875 -3.4225 7.14375 -3.125 6.1875 C-2 3 -2 3 0 0 Z " fill="#9BD3CA" transform="translate(360,247)"/>
<path d="M0 0 C5.3589909 0.33493693 9.10743856 3.57127181 13 7 C13.33 7.66 13.66 8.32 14 9 C10 7 6 5 2 3 C2 2.34 2 1.68 2 1 C1.34 0.67 0.68 0.34 0 0 Z " fill="#9FA1AA" transform="translate(395,210)"/>
<path d="M0 0 C4.29 0 8.58 0 13 0 C12.01 0.495 12.01 0.495 11 1 C11 1.66 11 2.32 11 3 C5.04296875 3.29296875 5.04296875 3.29296875 3 3 C2.01 2.01 1.02 1.02 0 0 Z " fill="#A5A6B0" transform="translate(204,318)"/>
<path d="M0 0 C0.99 0 1.98 0 3 0 C2.8125 2.375 2.8125 2.375 2 5 C-0.5625 6.3125 -0.5625 6.3125 -3 7 C-1.125 1.125 -1.125 1.125 0 0 Z " fill="#272945" transform="translate(235,140)"/>
<path d="M0 0 C1.32 0 2.64 0 4 0 C4 0.66 4 1.32 4 2 C5.98 2.66 7.96 3.32 10 4 C10 4.33 10 4.66 10 5 C7.69 5 5.38 5 3 5 C3 4.34 3 3.68 3 3 C2.34 3 1.68 3 1 3 C0.67 2.01 0.34 1.02 0 0 Z " fill="#74BFB5" transform="translate(361,99)"/>
<path d="M0 0 C0.33 0.99 0.66 1.98 1 3 C-1.97 4.32 -4.94 5.64 -8 7 C-8 6.34 -8 5.68 -8 5 C-7.34 5 -6.68 5 -6 5 C-6 4.34 -6 3.68 -6 3 C-5.34 3 -4.68 3 -4 3 C-4 2.34 -4 1.68 -4 1 C-2.68 0.67 -1.36 0.34 0 0 Z " fill="#595C71" transform="translate(251,336)"/>
<path d="M0 0 C0.33 0.99 0.66 1.98 1 3 C-0.65 4.65 -2.3 6.3 -4 8 C-4.99 7.67 -5.98 7.34 -7 7 C-5.1875 4.5 -5.1875 4.5 -3 2 C-2.01 2 -1.02 2 0 2 C0 1.34 0 0.68 0 0 Z " fill="#4EB3AA" transform="translate(367,319)"/>
<path d="M0 0 C0.8723412 2.99480917 1.10829766 5.63575911 1.0625 8.75 C1.05347656 9.54921875 1.04445313 10.3484375 1.03515625 11.171875 C1.01775391 12.07679688 1.01775391 12.07679688 1 13 C-1.6843999 10.67682541 -1.97569899 10.27217137 -2.3125 6.5 C-2 3 -2 3 0 0 Z " fill="#6B6D7B" transform="translate(88,220)"/>
<path d="M0 0 C6.75 -0.125 6.75 -0.125 9 1 C8.67 1.66 8.34 2.32 8 3 C7.278125 2.731875 6.55625 2.46375 5.8125 2.1875 C2.73609463 1.65105845 2.73609463 1.65105845 0.1875 4.4375 C-0.534375 5.283125 -1.25625 6.12875 -2 7 C-1.34 4.69 -0.68 2.38 0 0 Z " fill="#8A8F99" transform="translate(386,207)"/>
<path d="M0 0 C7.50769231 0.49230769 7.50769231 0.49230769 10 3.0625 C10.33 3.701875 10.66 4.34125 11 5 C8.69 4.34 6.38 3.68 4 3 C3.67 3.66 3.34 4.32 3 5 C3 3.68 3 2.36 3 1 C2.01 0.67 1.02 0.34 0 0 Z " fill="#6DA6A5" transform="translate(245,154)"/>
<path d="M0 0 C0.99 0 1.98 0 3 0 C3 0.66 3 1.32 3 2 C3.99 2.33 4.98 2.66 6 3 C6 4.98 6 6.96 6 9 C3.43004926 7.71502463 3.09565537 6.50087627 1.875 3.9375 C1.52179688 3.20402344 1.16859375 2.47054687 0.8046875 1.71484375 C0.53914063 1.14894531 0.27359375 0.58304688 0 0 Z " fill="#5BB9AA" transform="translate(302,195)"/>
<path d="M0 0 C3.96 0 7.92 0 12 0 C12 0.66 12 1.32 12 2 C7.31034294 3.11658501 4.46236469 2.80619523 0 1 C0 0.67 0 0.34 0 0 Z " fill="#49AFA0" transform="translate(335,183)"/>
<path d="M0 0 C-1.2608012 1.03319813 -2.53403258 2.05124379 -3.8125 3.0625 C-4.87404297 3.91521484 -4.87404297 3.91521484 -5.95703125 4.78515625 C-6.63121094 5.18605469 -7.30539063 5.58695313 -8 6 C-8.99 5.67 -9.98 5.34 -11 5 C-10.34 4.67 -9.68 4.34 -9 4 C-8.67 3.01 -8.34 2.02 -8 1 C-2.59770115 -1.29885057 -2.59770115 -1.29885057 0 0 Z " fill="#646677" transform="translate(184,180)"/>
<path d="M0 0 C0.33 0 0.66 0 1 0 C1.17835515 4.54805635 0.99785435 7.8794254 -1 12 C-1.33 12 -1.66 12 -2 12 C-2.28571429 3.42857143 -2.28571429 3.42857143 0 0 Z " fill="#67B6AF" transform="translate(292,127)"/>
<path d="M0 0 C1.65 0 3.3 0 5 0 C4.04578192 1.14926266 3.08647955 2.29430541 2.125 3.4375 C1.59132813 4.07558594 1.05765625 4.71367187 0.5078125 5.37109375 C-1 7 -1 7 -3 8 C-2.5359375 7.13375 -2.5359375 7.13375 -2.0625 6.25 C-1.07416636 4.15705816 -0.4831387 2.25464725 0 0 Z " fill="#74BFB5" transform="translate(320,124)"/>
<path d="M0 0 C1.65 0.33 3.3 0.66 5 1 C1.71536341 3.18975773 -1.20696275 3.99806563 -5 5 C-5 4.01 -5 3.02 -5 2 C-3.35 2 -1.7 2 0 2 C0 1.34 0 0.68 0 0 Z " fill="#58BBAD" transform="translate(333,117)"/>
<path d="M0 0 C0.33 0.66 0.66 1.32 1 2 C0.67 2.66 0.34 3.32 0 4 C-1.32 4 -2.64 4 -4 4 C-4 4.66 -4 5.32 -4 6 C-5.65 6 -7.3 6 -9 6 C-6.45543849 3.03134491 -3.51005335 1.6380249 0 0 Z " fill="#B6B6BF" transform="translate(247,340)"/>
<path d="M0 0 C0.33 0.66 0.66 1.32 1 2 C0.0625 4.625 0.0625 4.625 -1 7 C-1.99 7 -2.98 7 -4 7 C-4 7.66 -4 8.32 -4 9 C-4.66 8.67 -5.32 8.34 -6 8 C-4.02 5.36 -2.04 2.72 0 0 Z " fill="#74BDB5" transform="translate(268,337)"/>
<path d="M0 0 C0.66 0.33 1.32 0.66 2 1 C1.67 2.32 1.34 3.64 1 5 C0.34 5 -0.32 5 -1 5 C-1.33 5.99 -1.66 6.98 -2 8 C-2.99 7.67 -3.98 7.34 -5 7 C-4.67 6.34 -4.34 5.68 -4 5 C-3.34 5 -2.68 5 -2 5 C-1.34 3.35 -0.68 1.7 0 0 Z " fill="#858895" transform="translate(257,328)"/>
<path d="M0 0 C2.4375 0.375 2.4375 0.375 5 1 C5.33 1.66 5.66 2.32 6 3 C4.35 2.67 2.7 2.34 1 2 C1 2.99 1 3.98 1 5 C-0.32 4.67 -1.64 4.34 -3 4 C-2.01 2.68 -1.02 1.36 0 0 Z " fill="#9B9FAC" transform="translate(332,316)"/>
<path d="M0 0 C0.12375 0.5775 0.2475 1.155 0.375 1.75 C1.00648824 4.02335767 1.88858191 5.9253529 3 8 C0.5625 7.25 0.5625 7.25 -2 6 C-2.8125 3.875 -2.8125 3.875 -3 2 C-2.01 1.34 -1.02 0.68 0 0 Z " fill="#70727F" transform="translate(382,218)"/>
<path d="M0 0 C-1.24976756 3.65316671 -1.67098753 4.78065836 -5 7 C-5.33 5.68 -5.66 4.36 -6 3 C-2.25 0 -2.25 0 0 0 Z " fill="#3EA698" transform="translate(382,195)"/>
<path d="M0 0 C3.86648272 1.04097612 7.49461443 2.03698408 11 4 C8.36 4 5.72 4 3 4 C3 3.34 3 2.68 3 2 C2.01 2 1.02 2 0 2 C0 1.34 0 0.68 0 0 Z " fill="#B9DDD8" transform="translate(328,178)"/>
<path d="M0 0 C0.33 0.66 0.66 1.32 1 2 C0.01 2 -0.98 2 -2 2 C-2 2.66 -2 3.32 -2 4 C-3.96466413 5.06775224 -5.96855359 6.06553465 -8 7 C-8.66 6.67 -9.32 6.34 -10 6 C-9.38125 5.731875 -8.7625 5.46375 -8.125 5.1875 C-5.7004767 4.04443152 -5.7004767 4.04443152 -4 1 C-1.875 0.3125 -1.875 0.3125 0 0 Z " fill="#65677A" transform="translate(224,169)"/>
<path d="M0 0 C0.66 0.33 1.32 0.66 2 1 C0.35 2.98 -1.3 4.96 -3 7 C-4.32 6.67 -5.64 6.34 -7 6 C-5.68 5.34 -4.36 4.68 -3 4 C-3 3.34 -3 2.68 -3 2 C-2.01 1.34 -1.02 0.68 0 0 Z " fill="#737384" transform="translate(232,162)"/>
<path d="M0 0 C-0.1875 1.8125 -0.1875 1.8125 -1 4 C-3.26546849 5.56840126 -5.5414529 6.77072645 -8 8 C-6.48291727 4.46014029 -4.24676932 0 0 0 Z " fill="#41A99E" transform="translate(310,109)"/>
<path d="M0 0 C2.64 0.33 5.28 0.66 8 1 C8.33 1.99 8.66 2.98 9 4 C7.68 4.33 6.36 4.66 5 5 C4.67 4.01 4.34 3.02 4 2 C1.98491642 1.26676204 1.98491642 1.26676204 0 1 C0 0.67 0 0.34 0 0 Z " fill="#4EB2A4" transform="translate(353,98)"/>
<path d="M0 0 C2.16874252 0.50603992 3.99967627 0.99983813 6 2 C6 1.34 6 0.68 6 0 C6.66 0.33 7.32 0.66 8 1 C6.68 2.32 5.36 3.64 4 5 C2.64567325 3.68799596 1.31266518 2.35368596 0 1 C0 0.67 0 0.34 0 0 Z " fill="#64B5AA" transform="translate(339,249)"/>
<path d="M0 0 C2.0343459 1.41519715 2.90410393 2.54982123 3.421875 4.98046875 C3.66273952 6.98176954 3.83532741 8.9909944 4 11 C1.9656541 9.58480285 1.09589607 8.45017877 0.578125 6.01953125 C0.33726048 4.01823046 0.16467259 2.0090056 0 0 Z " fill="#9CD1C7" transform="translate(288,166)"/>
<path d="M0 0 C0.66 0.33 1.32 0.66 2 1 C0.02 3.31 -1.96 5.62 -4 8 C-4.99 7.67 -5.98 7.34 -7 7 C-4.69 4.69 -2.38 2.38 0 0 Z " fill="#DAECEA" transform="translate(325,124)"/>
<path d="M0 0 C-2.93720508 1.52299523 -5.9168649 2.80100302 -9 4 C-9.33 3.01 -9.66 2.02 -10 1 C-6.52674819 -0.1577506 -3.63932552 -0.06866652 0 0 Z " fill="#4F536C" transform="translate(298,318)"/>
<path d="M0 0 C2.27795022 2.27795022 3.05219877 3.93787293 4 7 C3.625 9.3125 3.625 9.3125 3 11 C0 4.5 0 4.5 0 0 Z " fill="#75BCB3" transform="translate(394,130)"/>
<path d="M0 0 C0.33 1.32 0.66 2.64 1 4 C0.34 4 -0.32 4 -1 4 C-1 4.66 -1 5.32 -1 6 C-1.66 6 -2.32 6 -3 6 C-3 6.66 -3 7.32 -3 8 C-3.66 8 -4.32 8 -5 8 C-3.8141763 4.62496331 -2.72426311 2.35277269 0 0 Z " fill="#69B8AE" transform="translate(298,119)"/>
<path d="M0 0 C1.32 0.66 2.64 1.32 4 2 C4 2.66 4 3.32 4 4 C0.7 4 -2.6 4 -6 4 C-6 3.67 -6 3.34 -6 3 C-4.02 3 -2.04 3 0 3 C0 2.01 0 1.02 0 0 Z " fill="#97989F" transform="translate(200,355)"/>
<path d="M0 0 C0.99 0 1.98 0 3 0 C3 1.65 3 3.3 3 5 C2.34 5 1.68 5 1 5 C0.67 5.66 0.34 6.32 0 7 C0 4.69 0 2.38 0 0 Z " fill="#606276" transform="translate(174,286)"/>
<path d="M0 0 C0.66 0.33 1.32 0.66 2 1 C0.68 2.32 -0.64 3.64 -2 5 C-3.32 4.34 -4.64 3.68 -6 3 C-4.03533587 1.93224776 -2.03144641 0.93446535 0 0 Z " fill="#43445B" transform="translate(208,273)"/>
<path d="M0 0 C2.0625 1.75 2.0625 1.75 4 4 C3.75 6.25 3.75 6.25 3 8 C1.5 6.8125 1.5 6.8125 0 5 C-0.1875 2.3125 -0.1875 2.3125 0 0 Z " fill="#57B2A4" transform="translate(327,229)"/>
<path d="M0 0 C0.33 0 0.66 0 1 0 C1 2.31 1 4.62 1 7 C-0.98 7 -2.96 7 -5 7 C-5 6.01 -5 5.02 -5 4 C-2.525 4.99 -2.525 4.99 0 6 C0 4.02 0 2.04 0 0 Z " fill="#ABAEB4" transform="translate(275,147)"/>
</svg>
